<mxfile host="app.diagrams.net" modified="2022-12-21T11:12:35.725Z" agent="5.0 (Windows NT 10.0; Win64; x64) AppleWebKit/537.36 (KHTML, like Gecko) Chrome/108.0.0.0 Safari/537.36" etag="fCdu6UNszfHM3SxvEiLJ" version="20.7.4" type="github">
  <diagram id="C5RBs43oDa-KdzZeNtuy" name="Page-1">
    <mxGraphModel dx="1434" dy="796" grid="1" gridSize="10" guides="1" tooltips="1" connect="1" arrows="1" fold="1" page="1" pageScale="1" pageWidth="827" pageHeight="1169" math="0" shadow="0">
      <root>
        <mxCell id="WIyWlLk6GJQsqaUBKTNV-0" />
        <mxCell id="WIyWlLk6GJQsqaUBKTNV-1" parent="WIyWlLk6GJQsqaUBKTNV-0" />
        <mxCell id="WILMDqse3mX5CFCyso_Q-14" value="" style="edgeStyle=orthogonalEdgeStyle;rounded=0;orthogonalLoop=1;jettySize=auto;html=1;" parent="WIyWlLk6GJQsqaUBKTNV-1" source="WILMDqse3mX5CFCyso_Q-0" target="WILMDqse3mX5CFCyso_Q-13" edge="1">
          <mxGeometry relative="1" as="geometry" />
        </mxCell>
        <mxCell id="WILMDqse3mX5CFCyso_Q-0" value="START" style="ellipse;whiteSpace=wrap;html=1;" parent="WIyWlLk6GJQsqaUBKTNV-1" vertex="1">
          <mxGeometry x="140" y="40" width="120" height="80" as="geometry" />
        </mxCell>
        <mxCell id="WILMDqse3mX5CFCyso_Q-16" value="" style="edgeStyle=orthogonalEdgeStyle;rounded=0;orthogonalLoop=1;jettySize=auto;html=1;" parent="WIyWlLk6GJQsqaUBKTNV-1" source="WILMDqse3mX5CFCyso_Q-13" target="WILMDqse3mX5CFCyso_Q-15" edge="1">
          <mxGeometry relative="1" as="geometry" />
        </mxCell>
        <mxCell id="WILMDqse3mX5CFCyso_Q-13" value="Go to explore device" style="whiteSpace=wrap;html=1;" parent="WIyWlLk6GJQsqaUBKTNV-1" vertex="1">
          <mxGeometry x="140" y="180" width="120" height="60" as="geometry" />
        </mxCell>
        <mxCell id="WILMDqse3mX5CFCyso_Q-24" value="" style="edgeStyle=orthogonalEdgeStyle;rounded=0;orthogonalLoop=1;jettySize=auto;html=1;" parent="WIyWlLk6GJQsqaUBKTNV-1" source="WILMDqse3mX5CFCyso_Q-15" target="WILMDqse3mX5CFCyso_Q-23" edge="1">
          <mxGeometry relative="1" as="geometry" />
        </mxCell>
        <mxCell id="WILMDqse3mX5CFCyso_Q-15" value="click on info icon on device card" style="whiteSpace=wrap;html=1;" parent="WIyWlLk6GJQsqaUBKTNV-1" vertex="1">
          <mxGeometry x="140" y="310" width="120" height="60" as="geometry" />
        </mxCell>
        <mxCell id="WILMDqse3mX5CFCyso_Q-27" style="edgeStyle=orthogonalEdgeStyle;rounded=0;orthogonalLoop=1;jettySize=auto;html=1;" parent="WIyWlLk6GJQsqaUBKTNV-1" source="WILMDqse3mX5CFCyso_Q-23" target="WILMDqse3mX5CFCyso_Q-26" edge="1">
          <mxGeometry relative="1" as="geometry" />
        </mxCell>
        <mxCell id="WILMDqse3mX5CFCyso_Q-28" style="edgeStyle=orthogonalEdgeStyle;rounded=0;orthogonalLoop=1;jettySize=auto;html=1;entryX=0.5;entryY=0;entryDx=0;entryDy=0;" parent="WIyWlLk6GJQsqaUBKTNV-1" source="WILMDqse3mX5CFCyso_Q-23" target="WILMDqse3mX5CFCyso_Q-25" edge="1">
          <mxGeometry relative="1" as="geometry" />
        </mxCell>
        <mxCell id="WILMDqse3mX5CFCyso_Q-23" value="check for &lt;br&gt;trade in promo pair" style="rhombus;whiteSpace=wrap;html=1;" parent="WIyWlLk6GJQsqaUBKTNV-1" vertex="1">
          <mxGeometry x="150" y="410" width="100" height="90" as="geometry" />
        </mxCell>
        <mxCell id="WILMDqse3mX5CFCyso_Q-30" style="edgeStyle=orthogonalEdgeStyle;rounded=0;orthogonalLoop=1;jettySize=auto;html=1;" parent="WIyWlLk6GJQsqaUBKTNV-1" source="WILMDqse3mX5CFCyso_Q-25" target="WILMDqse3mX5CFCyso_Q-29" edge="1">
          <mxGeometry relative="1" as="geometry" />
        </mxCell>
        <mxCell id="WILMDqse3mX5CFCyso_Q-25" value="no pair" style="whiteSpace=wrap;html=1;" parent="WIyWlLk6GJQsqaUBKTNV-1" vertex="1">
          <mxGeometry x="140" y="555" width="120" height="60" as="geometry" />
        </mxCell>
        <mxCell id="WILMDqse3mX5CFCyso_Q-34" style="edgeStyle=orthogonalEdgeStyle;rounded=0;orthogonalLoop=1;jettySize=auto;html=1;" parent="WIyWlLk6GJQsqaUBKTNV-1" source="WILMDqse3mX5CFCyso_Q-26" target="WILMDqse3mX5CFCyso_Q-33" edge="1">
          <mxGeometry relative="1" as="geometry" />
        </mxCell>
        <mxCell id="WILMDqse3mX5CFCyso_Q-26" value="pair found" style="whiteSpace=wrap;html=1;" parent="WIyWlLk6GJQsqaUBKTNV-1" vertex="1">
          <mxGeometry x="310" y="425" width="120" height="60" as="geometry" />
        </mxCell>
        <mxCell id="WILMDqse3mX5CFCyso_Q-29" value="BAU" style="whiteSpace=wrap;html=1;fillColor=#dae8fc;strokeColor=#6c8ebf;" parent="WIyWlLk6GJQsqaUBKTNV-1" vertex="1">
          <mxGeometry x="140" y="680" width="120" height="60" as="geometry" />
        </mxCell>
        <mxCell id="T5cWVrSVKAUoA4NtnXVo-16" style="edgeStyle=orthogonalEdgeStyle;rounded=0;orthogonalLoop=1;jettySize=auto;html=1;" edge="1" parent="WIyWlLk6GJQsqaUBKTNV-1" source="WILMDqse3mX5CFCyso_Q-33" target="T5cWVrSVKAUoA4NtnXVo-3">
          <mxGeometry relative="1" as="geometry" />
        </mxCell>
        <mxCell id="WILMDqse3mX5CFCyso_Q-33" value="Display trade in and without trade in price" style="whiteSpace=wrap;html=1;fillColor=#d5e8d4;strokeColor=#82b366;" parent="WIyWlLk6GJQsqaUBKTNV-1" vertex="1">
          <mxGeometry x="480" y="425" width="120" height="60" as="geometry" />
        </mxCell>
        <mxCell id="WILMDqse3mX5CFCyso_Q-37" value="" style="shape=image;verticalLabelPosition=bottom;labelBackgroundColor=default;verticalAlign=top;aspect=fixed;imageAspect=0;image=data:image/png,iVBORw0KGgoAAAANSUhEUgAAAS8AAAJHCAYAAADBkdByAAAAAXNSR0IArs4c6QAAAARnQU1BAACxjwv8YQUAAAAJcEhZcwAADsMAAA7DAcdvqGQAAIczSURBVHhe7Z0HnBRF2odLQBBRQVHBgKCoqIiYEyqYxSymM2CAMx0mzhwxe+ZTVBTzZ7xDz4CeWc8cUDAHDKgICooJFQV0v3mKeZfapmd2ZtnZnZr9P79f706n6qrqqn+9Vd1d7zxDhgypckIIERnNsv+FECIqJF5CiCiReAkhokTiJYSIEomXECJKJF5CiCiReAkhomSu3vOaZ555sr+EEKJuVFXVTYJqtbxCgeI3S7NmzSRcQoh6IdSUUFdq05i8llfyZFtP/hdCiLpillfyv5HLMqtVvJKLbQ//Q/hbCCHyEQpSmngllzRSxcuECFPO/odmHYvtAwmXEKJYQlHi959//jnHf7D/SRFLFa+kaDVv3twvtm7iZUIWIiETQuQiKUCsJwWL5Y8//vCLbbd9IXOIVyhMJlotWrTwi62bkIXiZf+5iBBCpJHUCRMmEyqWGTNm+PWZM2dWi5iJV6gv1eIVipBZWPPOO68XLf6ztG7d2nXq1Mm1a9fOC1hSuIQQolBMuACh+v77792ECRPctGnTvIDZwj4TNjue/zUsLxMus7ZMtFq1auW6d+/u1lxzTTfffPNljxZCiPrlt99+c6+99pp7//333e+//15DwMJuJFSPuiNctpjlhYC1bNnSrbXWWm7DDTeUcAkhSgoas9FGG3lDCe1Bg0yPQo2CGi+pJoULq2vJJZf0AQkhREOBwYT2oEFJATO8eIUbTMCs69ijR4/sHiGEaDjQHjQofEBoeJ3ihx/8yqzYYirHSR06dPAHCyFEQ4L2mHCZeNmCZjXjhxHutBM0ziWEaAzQnjThMpqZ1WWEwoXqCSFEY5G0vAyvU9nfc8DO8GAhhGho8ulQjVclDPst8RJCNCZpWmS/53hVwpBwCSHKgVy6NEe3kZ0SLiFEOZGmSznHvEAiJoRoTPJpUF7xEkKIckXiJYSIEomXECJKJF5CiJwwDc2HH37oHn74YXfHHXf4hd9sY19j4ufzYlDM3qjnK25ey2dZYIEF3F577ZU9VAjRVPj888/dAw884J599lk/x1YaaESfPn3cTjvt5JZeeuns1vrlzjvvdD///LOPAwtze9m8XhIvIUQ106dPdzfeeKO3rphPa5NNNnFrr722W2GFFdyiiy7qj/n222/dRx995CcNRNw4p2/fvm7AgAH+nPpE4iWEqBWmYc7ogRs3bpzbcccdfd1HA/KBsCAwWGnLLrusO/PMM93CCy+c3Tv35BMvjXkJIdxPP/3kTj75ZPfVV1+5M844wx100EG1ChdwDMdyDucSBmE1BBIvIYS75JJLfHcQy4lZTIuFczh30qRJPqyGQOIlRBPnsccec6NHj3Z//etf3SqrrJLdWjycixVGWE888UR2a+mQeAnRhGH86O6773Yrr7yy23rrrbNbZ41/nXvuue7LL7/MbpkT9nEMxxoM3BPWv//975K/SiHxEqIJg5XEWNVuu+2W3TKbDz74wJ100kmpAsY29nFMkn79+vkwCbuUSLyEaMK8/PLLrk2bNnOMc/HE8Pzzz/e/kwJmwgUck3y6uM466/gwX3311eyW0iDxEqIJw/taq666auqU77x4mhSwpHClvZxKWIx/8RZ+KZF4CdGEQYzwj5iLpIDVJlwG+0JrrRRIvIRowvDSJy+k5wMhGjRokPvhhx/8wu98wgWESdilROIlRBOGL2p4cz0fWFBXXXWVa9eunV/4XZtVRZiEXUokXkI0YbCgJk6cmF2bk+QYV3IMLBfsq806m1skXkI0Ybp16+beeeed1HeyksKFGLHUJmCE9d577/mwS4nES4gmDK81/PLLL3O8k8WLp7kG55MCFr6kCqNGjfJhEnYpkXgJ0YTh/a4llljCv2WfZKWVVppDuAwTMI5Jcu+99/ow6/KNZDFIvIRowvBO1h577OG7eQ8++GB266yXVE855ZRU4TLYxzHhS6qEQVhMp5P27lh9IvESoomzxRZbuDXXXNNPQojw1BXOJQzC2nTTTbNbS4fESwjhjjnmGNehQwc/GeHrr7+e3Vo4nMO5hEFYDYHESwjhFlpoIXfeeef5sSomFrzmmmv8DKa1wTEcyzmcSxiE1RA079OnzxlMAx1OBd2iRQu/MB91jx49socKISqZ1q1bu80339y/YPrf//7X3X///W7y5MmuqqrKv3BqM6sy4SCvVzAwf9lll7mxY8e6HXbYwR1//PEFzb5aDFyHOfJnzpzpF6Z/Jj4smsNeCDEHvLiKOP3vf//L+QY+GoH3oF122SXv95FzgxxwCCHqBELx6aefuo8//rj6fa727du75ZZbzi+lfqIo8RJCRIm8BwkhKg6JlxAiSiReQogokXgJIaJE4iWEiBI9bQx47bXXanycanTp0sVts802rmPHjtkttcMTkmJf2KvLOeUMMxXwkiEOHtJcaxnXX3/9HPNC8ZI0+c57RPk+Dq60PBM10asSBcInDrgsT4P8GDp0qPcqnA8yePXVV3eff/65GzlypP/otRBOPPFEd8EFF7iBAwf6ylwJIDzPPPOM6927t3/ZMReIFPmVi1133dVdfPHF/jiDfEYUJ0yYUFQ+i7jQqxL1ABmHK/Pa3Jh/++233uUTxz///PPZrbVjxxZzTqXRqlUr17lzZ7/w27jnnnvcBhts4C1j4+uvv3affPKJz2d8D4qmh8QrB+PGjav+horPJKwyYSHlgy7OsGHD3FFHHeUOP/zw7Nba+ec//+n2339/d/PNN2e3ND3WX39999lnn/kFURozZozbc889/T7Eiu/naBwAK6wu+VyukOZ8c8KLOZF4FcDOO+/s9t13X/+7kOlCDj30UC9Giy66aHZL7ay99tpeuKjAYhZ0v++6667qKVYQsHPOOcf/BstnPNrEDNb2sssu6zp16iQBKwKJV4HQ74ZSf8sl5gTBYp4oQOCZXaCSCNNTaWkrJRKvWkC0GEBn3AU22mgj/59KxNM0zP2jjz7aP9i47bbb/D4Glxn850lbyBtvvFF97LHHHuvPNXjKyTnhXOJc97777vNdJSow52Ft5Bp3IwweKDCLpS19+/atFt4kjCGdeuqp7sADD3S77767j1sYJ65LnLB4sA64NnHgHLYlsfQRFl25tGPqAg9LsH7hxx9/dB988IH//Y9//MPHz9bB8oA40MVP3gPixDmWl2ljjFh7hMExV155pe/CGuQl57NYFxa492wL7w3lgAcV5ClxITzyJRy7w9IKhwqwJAnH8o79lBXSQ5y4jgQuC08bM5lVddZZZ1Wde+65VRdeeGHVFVdcUTV8+PCqO+64o6opQV5ksiTnkrG6ql566SV/bOfOnavat29f1bFjx+r9J5xwgt9n6zfddJNfh8suu6x6uy0LLLBAdXj777+/39a7d2+/DlwjY3HUuIYtw4YNyx41i1NOOWWOY1h69uxZ9f3332ePqsmgQYPmOJ5r2fFPP/2037bqqqumHjd+/Hh/HIwYMaKqRYsWcxzHEqYpDdJZ23HhvSFeYOuWz9ddd131Nlt69erl98Fzzz3n8zx5zNChQ/3+GTNmVG299dZz7CcPv/nmG3/MuHHjqrdbPIC4s437aLDetWvXOa5JPo0cOdIfY3mcXNg+derU1Hs/atQof25TAA1Ci9AktAmNQqvQLFleBUK3BSsoHJOaMmWKyxRqP2jMuEyuwXxa38GDB/vfeFTJVESXqVSuTZs2tY7XMPEbrfB2223nz8tUBr/9uOOOq7aomK6E1yxgn3328XEhbF51wZLLdQ3evcIDTEZ4/NK2bVt/raRlh/XCPtJ5yCGH+K4zx2FZAC7gsd6wCJZaaimXEXHvEp5z6guzRCDXWCIWE5BXmcrvzj777OoxMuLIgD95xr0kjuQVackIhD+GYx999FG/jVdWSC/5+Oabb9b5oQBPRLkm18JZBdPJkE9YU8CDh4xg+t/AayE8uGE7Fpql++GHH/avDRAG46NC3cacXHTRRS7TovuF94gQiO233z67dzZ0kzD1qci5RIJpcgEnnDzWp1uAoFE401xHJaFAW7fSuqZUCOsS0fWhQnTv3t3vJy50MTgmzaWVgRDzdJRw6HpZJQ67QwbCTTpJi3XhTOQeeeSRaiElXXTn6G7ZcXML3TauD1T+XHnGAD88+eSTXsi4X7xrBuQDAoYwkV/EkbzivtoLtPZ+HfnHb9JrgsiwAefXBRoTroU4EibwOg3ChEiFjR7XphvJdhbiC/hH5B5TBsQsJF45oEAfcMABfqESYMWkkWt7iLWeiAVvjgP/8705HsLLmIYJDNhYjFkiVC7bZgKUa3yE4xi/69+/v6/IVCoqFIRWjkFFMiw+Jlg25sT7Wcsvv7z/XZ9gpWCBAk99LQ+TIAK8EEvarr32WrfGGmv48Tmwp3jkeRjHMF288AqhdW3iRz7WVbzC+xfec7tXuSBuNAK8psN4IvcKgU67P00RiVcDYOKC1WViwv/6ermSysagNpUPnwN4Kr799tt9q51mLQKWHK990LWjYiN2dGXrglVOrh8O+CcHy4sFy5RG5KqrrvLrdPdMjNIgn7H8sJQtLeeee66Ph4lGMo5cw+4JXV4IB/HNuiQvCT8UThMRRAgLrhTwUIH4Yr0Rh3fffbe6y9nUkXg1ABRAwLLhTXFMf1p0fs/tp0BUPLpn1opTiaiQiBJdJetK5YNzEdK6VkA+zeF6xIUnnFhAbCvWhRafEvGpmi2IsD3lRbgQ3FzjXUD8sZTB3ssDhBkRtDhuvPHGPo4cwzX+8pe/+OPoagNdNH4zzoW1AxyDlY0ImsgxjomYklaz2upCaL1TVhibM+EnfO4jjZB1l9O69U0RiVcDQOFm8BgQFr6ffOGFF/xgcCFjXvkgPMKicvNVwNtvv+3fTKeA5xtzIk6cw6sHvByJkJoFUiyM9TFOg2WAlcDDA8adGOMLP/OpK4z5kc7aBqoZj7vlllt85T/ssMP8NuKAZUocEQHyHEuTOGKdgr3+glAw2E8+3HDDDd7io2vcs2dP330z7CEAlheWHflvD1LqApYr9wJ4YIBIM9aGGBP+EUcc4RsFrC4wgW7qyPVZAC0gXlCo2FtttVXOsRWgMmDVcOwyyyyT3ToLwtlwww39TBRmKWyyySZeTAhzxRVX9OFT4VdbbTW/n24fYzG0sKussorflnYNjmMhPMKnovGZDB+rEjZuqBiDevHFF73LKJwkpEEYNlDN2ApWyP/93//5axIHxtZIx/zzzz9HfnAuFgjH4R0ZEOF+/fr5MkT69ttvP3f11Vf7NCEOlqY0uA7hYI3awjUPPvhgPxaHFZTmC5B4ELbl87rrruvjtfjii/v4YC0NHz682rIhLwYMGODXOY57xAC5WV7Efe+99/bnkg+kA+sL4bIwgHvCdckbjiWtWNCEz32xPOccrkFaiJNtszzdbLPNfB0jX1nnXpJPhIdAcV+4Dmnn/nP8pZde6rbddlsfVlMAC1SuzyoYnnhefvnl2bWa8BieljyfEAtRrmhWiQqH1pnGhqd9vAdk75EB3RBeZRCi0pB4VQB0bWiVeBDAeAz/wwcB4dM1ISoFiVcFwFgA8L4Wg9aMpdkTTgjfWxKiUpB4VQCIFuOVvIrBUzY+1eG1A9DnJKJS0YB9hcATRj5BoYuIJcaTKp6iFfKelxDliuawF0JEiZ42CiEqDomXECJKJF5CiCiReAkhokTiJYSIEomXECJKJF5CiCiReAkhokTiJYSIEomXECJKJF5CiCiReAkhokTiJYSIEomXECJKJF5CiCiReAkhokTiJYSIEomXECJKJF5CiCiReAkhokTiJUSGb7/9NvtLxILES4gMxx57bPaXiIUoxOv55593m266afWyww47+MJWrBv71157zZ+/8sor+/PN03QlQ96deuqp2bU5efDBB90///nP7Fpx7LLLLt4tVRpff/21+9///pddc+6vf/1rtXVz1113ueuvv97/bmxefvllt9tuu7n777/fbbzxxt6B7w8//JDdO4tHHnnEnXHGGX7fO++8k906G3xmso9jOLY23njjDXfOOef445944ons1tmQd1deeaXfj/dzXH6lwX2jTDdVohCvjz/+2L399ttu//3398vWW2/tC1GPHj18wSmUnXfe2W2++eZuxIgRrkWLFk1CvMg7BCwXFH4qU1247777cna3cIC77777Ztecr6QmdNyzfHFqKBCuPn36uJVWWsmtt956buDAgV5YEQwgvttss4074IADfDrJK5z4IiwGAoJHcvIQ0eFYylmusnXiiSe6jTbayOcBjS/CGeYT4kfjSqNCeBdffLG/Zlo+s69jx47ZtaZHNN1GHOBSMFgOP/xwf5OXWmqpGgUpHxQUCgNWyKqrrupbShzritJw9NFHp1op5QTCQ3nCCkIE+I0IEXegzLRr1843AJSzu+++24vbcccdVy3ElENEkO3XXHONPx+LE2FPggWFaJEviDsiiSASrllg/B82bJgP18IjDpTXELYT56WXXjq7pekR9ZgXIoQgFUql32haYrpn5QCWLZWunMnV5TUoX4gSDaeBVWUiBIgMxxkICpZSmnDTWCJqXbp0yW5xbvnll/fH2xAI9/Avf/mL/w3kI9ZfsnuIZcb2pky04oVoPfnkk2777bfPbhFUxqbQFa4vsLRuueWW6m5iIWBVtWrVyotOGiZsoaDlg/G1d999t4agJbHuagii2dTLfjTiNWXKFHfggQf6hYFixgUY/6IAGpjva6yxhm/hFltsMW92A4WTwdgJEya4ZZdd1i8UGio6YxALLrigm2eeeXxLFlpyW2yxhe9CtG7d2s0777zuyy+/9OcceuihfhvXSZ4TQtwIv1OnTj58xugo/BQ6wiOMZHeALozFh+vTZTFokRnEtfBIh7XInHf55Ze7e+65x28PCzbjJaxzTto1jfXXX99bGiFpFSdkyy239OESZ7rkJp5YBuFYTjnCeNPQoUP9MMTtt9/uy0k+8WcfD3qwbnNZldwHLDUstEKgfHTv3t3f6zTIR8oMcTS4nwgk9wuw5ojTOuus4+8FZZ9uKXG1ssT9Dwf+ET/qEPsoT1wnNqIRL8a3evfuXWOh1bSBX8SIAnPCCSf4m/T444/7gsF+ROS5557zYYwbN84vNo7ATXvppZfc999/77uV3GQrwAgH5vxHH33kxo8f7/cTJiL21Vdf+WsuuuiiNQpWCOdS8EaOHOnD79q1qw+feLLOg4OTTjrJhweMq1CBiCv7ab3DQodIMibCeewnD2x8BuE46qij3K677urTFxZG4kFF5ZyHH37YHxuKooE4Jp9MUhmJQy4uuugiN23aNB8uFcYaDCqYpaucodITz169evm8zPcQiHJEg0XXLg2En3E0xrDo7tUGxyI8yQbDIB577bWXz9PQ0uPehveEckgYlP2pU6e6IUOGuP79+/vtPOiiPBCWPeGlS0t54DiOR8C594yjxUQ04mUDqiwUMm76nnvu6deBloQWj4qOAHAjsBjytSgUHgoGIoGY8ZuKHo4vcC1Ey57qUAB4umSFjidVPGbPBVYa8SB8fiN2VBjiSgHs1q1btZBwfXu6xPHEDyENH6dzLi2uhZcmQkmIL/nEOTxdI73JMRQgPLqepA0Im3zNJc5AXKnQPEEjrxCw2CBf6LZx79u3b58q1qSNPCNvSG8S7hH3hvzKZ6kaCBxWNOGldRnJe17rOfvss+ewYNO6jNxjBIlyxf1q3ry5b4gIm4UG08SJ+oFYsZiVSNzL5fWVQol6wB5T+5NPPvEVHKsE4cLSsYWbRqXKBV1REyWgteScfBbDjz/+6FsuuwaF7JBDDsnuzU9aoQ+vz3WTBZn9aY/JgX2TJk3KrhUOlTXsQhjED8uSSgUIKaIXxjEfWAe54hoD5AvWL2UKITOw0BEZ7ndaXmDdIxyIQr7yZiA+iAUNq3X9QijLiBPDIohmCGWd82sbrE8+nEKkrEfBPUrur63clyNRixcFCssF0cGa4OZgrVCIbElrRQ3e7aEgGAhROJaQRs+ePX0BDa9R6OsatcF1Q0uRQvzmm2/mjU99g/XFdbECbdwkH+ETO6yPhozr3MJ9C61a4P5jtSBkQHlioZykCRfH89I0VgsCloRGIhR0hA6Lh3KTJnTkJ40y4pQ2Nsn5WFmIUV1JljMIhTQZ53Kl9o55mfDhhx/6wXqDQvP+++9X3wRuOAJGgbDuz7/+9S/39NNPVxfEJFgWiButLAWTAW/rJuaCAoWZzTlcz246FsvcQth062gB6Y5eddVV/sVJfhcCrSddWSwnugjW/SsGrC/y4IgjjnDbbbddzqdqBnlBN4U4UyF5aBILVFJEgoX4k44bbrjBixVlBsHinS7GEZPjUuQRZYyuXYcOHbw1Hr4eQZiUC8SfsVnGnbgeQsf95P6EY0wIH+XJ4sL1zQIGzkH0KG8cMzdgTXOvqDOUfwTc0g/8p+4wzpur7pQDzTOV5QyeOLA0a9bMtzpYMiwtW7b0A5iNDXGZf/75fUbagkhhHYQVe++99/b/GZvACqPgrLjiin6bhbHuuuv6dVhmmWV85XvxxRe9tUGB/Nvf/pbdO8vU5viFFloou2VW14jCM3r0aG+pITaIJeEn4fzVVlvNLb744n6dYxZZZJEacWDbmmuu6a+BgFKI33rrLffpp5+6AQMGuOOPPz575KxjN9xwQx+GrfObbUDcJk6c6L777js/TsI6x5BOKobBNuLA+BtxZL/lEyDel112mbe8llxyyezWOSG+Rx55pHvqqad8fg8fPrz6fhAu6Sb9YHGnTPF7lVVWccstt5zf11gQn/3228/99NNPXnSJOw1av379/H7KBHlBPiWh/Fk3LMxbg7DIO+oU+bDjjjv665D+tAaB/OA47l9YPgzymmMmT57sBScsk+Qnecl+I8xvW+cY7jO/EUKsKwSX8kddsjCJM9fL12tpKIjf9OnTfV6z/Pnnn66qqsov8wwZMqQqFC4e4dP6slAAedohmhZUYFp4xniaCmaNiPLizjvv9BYuVivLjBkz3B9//OFFLOoxL1H/UEAQr9rGuioNLA8RFxIvUQPGdsqly9CQpD0JFuWNxEvUgIcGycfzQpQjEi9RDQOidJ/K/bMeIUDiJarhKRRPT/kvRLkj8RJCRInESwgRJRIvIUSUSLwy8JEsb8sDnx2Fn20IIcoTiVcG+7YLmL8qOaeVEKL8kHglYHaA5Ee4QojyQ+KVwL7pNHjTPMYJ9oSodCRetcBHoTZ7gBCifIhCvJiahKlizGkFU9CYoDC1B5+zsJ3ZMRhwZx9zEpmTDOYtIgyDriFOCsz5ADOqGkxQZ3NzYXW98sorfk4nnFowHgb8J2ziY9NQCyEalijEizm3gAndxowZ44XIpum13zgawCkG8yghLogY61hOTNJnn7wwEyXCdt1111U7jsCVlcEcRyZ0TAvDbKs4meDaNpB/2mmnuVGjRnmHFjypFEI0PGUvXkwsyIRkjDsxMRzixAyh4YRuWF6sMxsCMC+TOcngPPbh4xEYjMdaQhCxyphILhzjKoStt97aCyCvV6RN5SuEKD1lL142RXMxU5ZgOSF45iQDK8ycZGCJmcjVFUQR0WKaX7qwQoiGp+zFC4FAwBAgA4snn4MArC7EBQvMFptsDksrdLrA+BiCVgwIKV1T4oEll3TiIIQoPWUvXnQVmdUTRwcIBk4JECcb80rDjqM7yeA8g/rmiYUxKoSPbQgasyjgnDMXdDnxsUdYNubFOThpwKpD/JLuyoQQpScKBxw8LWSsCycJTMZ/9dVXVzv2JJ7mwMJATHhSyHiZjUshWqQHqwnhGjt2rF/YzrFYeDjoIDxzVAD8f++99/x5DPrjJIG4IFwI6IUXXliQk1EhRPHIAYcQIkrkgEMIUXFIvIQQUSLxEkJEicRLCBElEi8hRJRIvIQQUSLxEkJEicRLCBElEi8hRJRIvIQQUSLxEkJEicRLCBElEi8hRJRIvIQQUSLxEkJEicRLCBElEi8hRJRIvIQQUVL200A//sEzbsTokW7Itse6pdrNdlk26vM33EPvPO7O2O647JZZnP/o5e73mdP99jHj33bt5m/rlm2/THbvnFz5zA1u6m8/u5O2Piq7JTenjfyHm/jjpOxaTXZfcwe3zSqbZdfqxuVPD3fNmzV3h/cemN1SPB9O+tjN/PMP132JbtktotKgzI4Z/052rSan9h2ct7zHRtTTQLdr3da98tnr7umxz2e3zOKBtx7JiNcT7tfp07JbnP89YsxINz0jXjDw9sHunIcv9b9zgcA9+/FL2bX8IIrOVfnltS/ecOOmfF69Pmvf3PHWhPd8fOaGY/4zxB2bWUTlQhl5a8K7mV+zyl641Ec5jIWyF681OvVwreedz4uFwQ16/INn3fQ/prtH3nsqu3XWTf0jY3Vs2HVdv37BTqe5ozY92P+uDy7c5XR3w77/9Av0Wm7d6vWdVtvGb2tsTt3m734Rlc2iCyxSXfbCZaUOsz3JVzplL14tMt2oXhkxenncaN8dghc+edVNmzHNLdm2Qw3xejljoQGiAluu3NutttQq/jf0G36gO+Ohi7Jrlcn6y67l80uISieKAfv1uqzlxeq9rz7064+8/5TrtnhXt886u2Ussjfdtz9/57e/Mu51t0rHFd3C87f160kIA8tMCBE/UYiXWVJYVoxrPf3hC27HTDdty5V6Z7r5Vd76YtD9w8mf1LA6Dr7jGHfJk8P87+PvO8tNmvqt7272vWovPzhucC7H9jxvU7f+Rdu6EaMfyO4pnEk/feP2uOGvPtw1/7FFJpy+Pq7DX7jVbXTJDtVhh5biuxkx3uumQ/2+3pft7D6c9El2zyye/eglH1f2bzV0D/dUYtwvjZMeONenFRD1na7d3133/K0+fMLZ9boBbtyUL/x+ES+U2WHP3VxjsfFSHixR7rcftq+/53e+dq/ffsvL/6ouB5Q7yp9BWaOsFFPWGpsoxIunjF0W6eQtKzKVsS6Eq8NCi7m1O6/un0hal3HDrNDB+O8nuB9+/dH/3qnHNm7BVm3cSh26ukM33t9tuuJGfjtM/f2XzL4F3Fnbn5DpZq7szn/sCvfFdxOyewsDiw7xIS4nbnWkG7LdcW7+lq1d947d/Pr1+1zmwx727M3+eArf3+46IfN/qjtlm8FuwAZ7uebNZt+OjyePc0ffc1omPeu4m/pf4f8f+58zquP1fSZdE3/82i8IpzE583tK1hLlwcVnGaG6bdTdbv/19vDxmPDDV/6JrIgbyuw1z91SYxmdFS/KxO2v3p0p47182eIp+IPvPO4ufeoad1CvfX1ZbNl8Xnf03af68WMra2sv07NGWfv4m3E+vHIlCvGCTVbYwL014X3/lJFMRriAG/PGl++4/7zxkBencIwrBIsMMem08FJ+cD08bvEFF3WX7Hqm337SVkd5IXpr4nvZvcVxUK/+bo81d3R9s69NcJ2ff//ZP3DgNYjxP0z02xHhH6b96C7Y+XR//P7r7+mWX2xZvw/uf/sR/59XHhDhbh2W9/F6IiOOsPdNh3irjGWrK/dwE3/42m9PY1DvgW7Ahnu7vdbexW236paZFjr9MbuIB8Z73zz56RrLwMw9Nnpkyt0xmx/myxbDKPdm6gfnLDjfAl7cKJeTMz0RrK9kWeM/ZQ1rrJyJRrzW77KWt7he+Wy0r4AG4kUr8uKno9x6y67lB/iLJTynVYuW/n99jI3RbaQr+XC2q4i1ZeGatRQKVggWI+miK/Da52/48b4de2ztVsm+v3XZbuf4FpSF1nLxrJinYWkCnlKRj6KySdaDSVNnlTfKEgvli/K0aJtF5ihrvLITlrVyJRrxontIBjefp1mNLh/WFFYZ2NhYPuw9mIZ4Hwazm5daT+37d3fYxgf4J4GGWX68aAsIGy2igaU1/Y8Z7i8Za+nsHU703dAwDB6Jr5PJE5Y1O/Wok2iLpsNqS67iyzyvDlGeKJN/z1hmyyyylC+L02b8Vl3WWJLltRyJRrywHhAwun/Jp4nbdZ9lidUmXl0zVs6zH7/sB60b4kVO3nSmK3vR41e6CzOLDZwCBWO9Lmu6cx65zPW/eZAfXLWnptBv9e0yXdwl3QH/d6QbeNtgt/O1+7v9bz0iu1eI4jg0I0aMgVKOKE8Myp/+4D/8PnoyXRft4svawXcc68vivrf8ze8rZ5r36dPnDD4PCj8RatGihV9atmzpevTokT208Vmo1QJewMLPhGDJzDrdsc1X2iS7ZRZYZT2WXNl1bt/Jr6/cYcVM6/Ob67zI0m7PtXb242Ycs2rmmJU7ruiPaZkRyZbNW3phWaTNwn5bGs3nae6PsbAZz5q3eQsvoCauJrhf/zTZh8vg6ZJtO7rVl17V799q5U1d2/kW9HHv231zd2Sfg9wSbTv4ruS8GStz+0yhIn7sX3XJldxxmw/K+RqIwTWx2lZcvGt1nBBKSwvblm63hFtrmZ5+XcSH3WPKdhqUmRUy958yYLRtvZDbepXNXItM/W6WqesbdV3PW1ccS1nbtvsW/veMjLVPWTt+i8NrLWsNwTvvvOOmT5/uZs6c6Rc+C6qqqvJL2X/bKIRoukT9baMQQqQh8RJCRInESwgRJRIvIUSUSLyEEFEi8RJCRInESwgRJRIvIUSUSLyEEFEi8RJCRInESwgRJRIvIUSUSLyEEFEi8RJCRInESwgRJRIvIUSUSLyEEFEi8RJCREkU00DjkxHnqXg7SQMv1ThhPWO747JbCuO2V+92T499IbtWk+UX6+JO2vqo7FrdwDs23oGG7nF+dkvxkK4xX77tNgs8JonSg9s6HAjjWi90HTfzz1m+M/E6Pv+8rb3zCtzJ1QZ+NSkPv/8x3ftF3GT5WR6vkuCEhTLz64xp3pcBnrLSPEPhCQgnMgM22Nut0al8/EzUN9FPA43PuVte+XcN7zsh+Jl7JesxuxjwpuJclV8+nPRRJpx3q9cpvHMLBRxvRXPDNc/d7AbffZob961c9DcUCMheNx3iTn/wgmrv40CZOOSOY9wJ953trnv+Vu+BGk875mY/F4ggrvQv/991/rwj/n2y91aNEIaM+vwNHx7hchxeq7leWlnkmpQtHLo0VaLqNl70xFXe03R9gRfpG/b9p1/wxkILauv4risH9llnN3fqNoPdsosuk90iSgnOgPe+6dCMpT8+u2U2w1+41b32xZvuxK2OdKNPetKNPPQ2t/D8C7nj7zsrpx9QhPDMhy52Xdp3co8d/m/36gmPuUM33t9b/HcFjTHnn5AJh/AIl/C5DtfjukmeztQD3JWZ5/imSFTixc06+f7zvIvypgJOQXdfc8fsmmgItlhpE7fbGjtk12aDy3zc1u219i5+nXszqPdA7zb/5XHplj9W19Tff/au9xEauoC4HMMnpzkchhc+edVN+eV7d+SmB/twgetwPa6b5IVPX3WbdWvaQwlRidf5O56SKQCLerPb3OULUZ8gMMdvefgc41h023+Y9tMcjo3X7zLLq/QbX6Z3Hd+e8J738o7/zhDCee/rsdVdQsY1wcIzWOe6X3w3IbtlVlzGfz/RbViAh/hKJirxwinm0N0Z/K5yB9+ZPhYACNvBdxzjep63qVv/om3dJU8Om2N8oRAG3na0uy5jsm90yQ4+LMYkaGHxNsz6mv/Ywp3z8KXZo2cNrh/znyF+O8uI0SOze2bBGFgYryufuSG7JzcjRj/g+l61lw8biNPw52/1YyiE0/uyneu1Ky3S+faXWWNfyW6aiVzo7TyE8VqzuELaZR26/pC9r/Y/6egVh8pAOAZdxnatF/Ju+oEHT5RDygZlgvLKQy4eZFHO2Pa3u46vUV+e/eil6jJEeeZhQmxEJV6ASX1JvzPd+ExLlDboyfph/zreCwVjBvuus6u7PXNzuZHFMvHHr90NL97hBmywlw+LpzodFlzMHZhZv36fy9x+6+3hRowZWW0FnvzAud78P2jDff041ZJtO/jtQLyILwWIc4/a9KCMMN5W/RCC7VzPFksXlYb1admCx28G8fHWfdb2J2Tis6jvSucSclF50GXEcjNBpFtKOcQbOmVilSVWdGf+92LfZf375oe6QZsMyJwzyjfE8PHkce7oe07zZceOP/mB82p98FBuRCdegIgM2e4498pno92ZD12U3TqL1zLW0SfffObOy3QxGTM4vM9At8+6u81hBRXKliv19gP7hEVh6ZQRT1rH1754I3uEc198P8G3vC9mCsjBvfq7wzY5wPVbfTvXq+tss/6VjMXGIDDdBwQIKxJxe/bjl/z+8x+93FtYtoTjIUm2yMTp5K2Pcjutto07dOMD3LQZ09wHkz7O7hWlYOHWNS0lwyxis6SStMuc9/2vP2XXZjP1t5/9/wXnW6DGf9tu2NPORdvMsvDYP+bLd9yGQdkyrv7Lhb5MnLTVrFd8DsqUxT3W3NEdvFF/12PJlf1TeRgx5gFvufEKD8dfnDEGGIO7bdTdfn8sRCleQKZj4Tzw9qP+ZhpmXi+z8KxBT1i2/TK+gicLRl04feQ/3IWPX+n+yFhG4WN0u26XzLXSsG4HFiMCy7L2MqtXv++DCGGR2ZLvva7wvSMr9MRHlI4uiy7jWs87n3s58UqOWSvdO3bz/5PQtaPsmXAY3P8ui3Sqvn+rLDHr/NEJ62dUppFcsFWb6qfNWF2uqsr1TnlPzCyxsHwY4TasdF6xsG2+Uc7Ul6QwlzvRihdgVW26Qq8aFXeNpWe9sEefH3gEjRXDo2orKHPDMxlLaf/19nSH9x7o/xsIZMvm87pH3589dvDxN+Oyv2YVYuCVDF7DYEGw7MnVUu06unUyVpkt9RFXUX9QwXkhFWvfnizSGF7z/M1eXDZZYZaYYIEPy3TrGbYArGTKBeOb1rW//61H3IeTP/HhGTRWhHPVszdUN7KMS2HN75hpqA220fOYm/LBy688LPgwa63Tc3jt8zddj2wZZeiDcbS6jBM3JFGLF5y30yluxcW7ZtdmjYkxJnXN87e4PW44yO2QfYnw+C0Ozx4xd6yUEZ+7Xr/PF8aj7znVP0kCuoGI0SPvPe0HQlkoBAbitkvPbTOF80Z3wP8d6fa68VC37dV76eXTiKDBont1yJ3H+vu75dA9/PjRWduf6O8//OfNh9w1z93ibnzxDr9Oo8SXIYgeA+O8hMrLr7wCsf/6sxs/zh+y7XE+PMIl/CNGnOwbXbp/gJjYeNfcwKs3vHa0782DfFnc4/qD/FN8a4zP+O9F/p3KpLVYbjTv06fPGXweFH4i1KJFC7+0bNnS9ejR+J8ecGMXW7C9W3/Ztdy8mVYshHVaLUxz9gP/uy2+vG/paGXOyBSK1Tut6vflgsHOlTuu6McGDLZRyDpnCpBBN+/H335yP2dax0M22t9/6kFLSBzXzPznury532PJlXxhbN9mEb8d+qzYy5vnxItC/bdNDnSrLT2rtcsF4XZcaHG3wXLr+NYfUx8rzuLEtjat5veP1BfItNyifkgrc3QbGa5YZP52Pt9XX7q7O3mbwd5SNjou1MHf3z3X2tktvuCifhtlygSHsavdMuJx3BaD5ujedV2si+udKSPNMnWRMTYsrtP6/t0tlLWyfpvxu/uj6g8fh/BeU067LtrZl1VomQmXbVzTnl6SnhUyjTwNPenZPmP1tZ63lfuz6k+3RbeN/XXatl7IH7tIm4Xd0u2W8Ndplm2cG4t33nnHTZ8+3c2cOdMvfBZUlek2s0TxbaMQomkS/beNQgiRROIlhIgSiZcQIkokXkKIKJF4CSGiROIlhIgSiZcQIkokXkKIKJF4CSGiROIlhIgSiZcQIkokXkKIKJF4CSGiROIlhIgSiZcQIkokXkKIKJF4CSGiROIlhIgSiZcQIkokXkKIKCl7BxxTp071E/ALIRoeNGDBBRfMrjU8+RxwyHuQEKJskfcgIUTFIfESQkSJxEsIESUSLyFElEi8hBBRIvESQkSJxEsIESUSLyFElEi8hBBRIvESQkSJxEsIESUSLyFElEi8hBBRIvESQkSJxEsIESUSLyFElEi8hBBRIvESQkSJxEsIESUSLyFElETlgOOHH35w11xzjXvyySfdxx9/7Lp06eJ69erljj76aLfooov6Y7bffnu38847u7/+9a9+vZy566673JdffumOPfbY7JbS8O233/r7OHPmzOwW57p16+b+8pe/uD59+vj1l19+2Z122mlu2LBhbvnll/fbGgvu7UEHHZRdq8l6663n/vGPf6SmifLavXt3Xx46duyY3Torn6+99trsWk0GDRrkdtttN1+2dt999xrhGZ07d3Y333xzdk00JBXhgON///ufW2GFFdxJJ53kxo0b5wvU+PHj3bnnnutWXnllX/ngoYcecs8//7z/Xe6cc8457uKLL/Y3pZRw85944gk3ZswYn3cfffSRr8ybbrqp++c//+mP+eCDD/wxiGljQxy431999ZWrqqqqsVheJdPEMmrUKHfBBRe4Hj16eAE0SBvhTZs2bY7wTKwQL8IjnFzHiPIiCvF655133A477OBV99577/UFk8LI/8cff9yttdZa3gqLiQcffNC9++67btKkSQ3WqmORfPbZZ14cEP6ePXu64447riwEK40TTzzR3+dwMbE1LE0sX3/9tS8f33//vTv88MOzR8wGCywZHtZnyAEHHDDHMbfddlt2rygnohAvulW0tHfffbfvEoZsscUW7pFHHqnRTYgBLK4OHTr4bg6/G5qll17anXrqqd6qoIJWCpSPtdde27322mvZLaJSKXvxwpx/9NFHXe/evb1QVQJvvPGGe+aZZ7zVwPLJJ5+4++67L7u34cBSAcY3KwXEGEsytsZMFE/ZixddRqA1LRRaXcbHeBCx7LLL1hgDo8LSOvNgonXr1u7QQw+tMeZEd65Tp07+XP6zbjBQjOtz9m2wwQZeWIExlfXXX99vZ/8ZZ5zht+eCcFq1auWvve+++3oLLGl9YW3Sbdpoo42qw2WMDLBASVdoMREX0kzYueAY62LRFTrzzDP9tbfZZpvsETXTSD5h8RpYuIwvWt7QDTOIK101Ghj2k7dYdgaiQr5Y2OQX+ZYPBJ1zbElLG2mx7h33igc2EyZMqHFtY+ONN/b5Zkvag5LLL7+8xjEsJvKivCh78WrRooX/X8ygNpVi1113ddddd50fcEUgDCokg/sXXXSRO+GEE3wlxvoBRG6XXXbxXbmbbrrJP5FjHTGkEvOwYP/993cjR4502223nWvXrp2PF5WfeD799NPu7LPP9qKQaxyLynbPPfd44eJ8rB4q/QsvvFD90AF4msbgM8cQFyxPngYSF67HuE5Yma+88ko/2MyTs1yEFbN///5+DBEh5CmdQd6df/75bsiQIe7++++vFlUbd0TsiA/jjDzts4aBCn7VVVf5fGA/+cPDFBNYwkF8L7vsMp9P5GdyCCAJ1ycvbTHxDrnlllv8gwcW4kce8sQ0OZYFPKkkH21ZffXVs3tmw4Og8JjNN9+8Rv6IMoJXJTKtWtVZZ51VlSlsVRdeeGHVFVdcUTV8+PCqO+64I1P3G5epU6dWZayUqoyQZLfkJ5Okqn322Se7VlWVKch+2/jx46tGjRrlf997773ZvVVVGbGpylQ4f52MMFVlCm9VplL7ffxnfeDAgX69a9euVV26dKnKVM7qYwiLME855RS/nWWppZaqylRevz/JUUcd5Y/PCGtVphL7ZcSIEX5bRnCzR1X5uBCOkREmf0ym8vt17hvrY8aMqZo2bVpVRlSqdtppJ78viZ3LfovjnXfeWZURwOwRVX4bxzz++OPZLVVVmcpelanA/vegQYP8NbgWkH7uicWZ+LLf+Oabb3x45C9kGoSqjOBVX/+QQw7x+z/66CO/P4Q8YR/H5cLSRH7ym3C4PvfI7o1hecVxubDwOFaUD2gQWoQmoU1oFFqFZpW95UWrRyv64Ycf5uwSJa0ys9bAxnPotlg3b6WVVvL/gd/sw9LBeuCppZ3Pfwa2rduAFcETugMPPNB3Yzkn7Dpa94WuU9gVMzj2hhtu8L95j8ksBt4vAiyN8BF/mA57mmrXw1ps27atzxOsR55apnWVQrA0eJrGQp5i1SVJyzvAUiIvbBvHkXfkgREeb+/dkbdAHhKG5RH3DCvWjqsrpIG84d00uq6MH/IuoKh8onjaSAXNWCG+20altQrOwCwVdokllqjR5crFqquu6l/Evf766/06FYvuHWFTARhfeuWVV6rHYugqvf766347UNEYh3n44Yfdm2++6c8lTOAY1lmIU9qjerp2VGAe52da+hrLc8895+PDMYVApSUv6ILSnaKLU8y4YLEgfKSZhw3APeChA2NXhWBxI33kEa88sKQJaF2hK56xvnx+kM+isolCvHhyxNgK4yyM29hgPIPGjKswNmWWST4Ih4HfSy65xL/IyOAzg9AmGAgOYx5rrLGGH5BfZ511/DrbERZa9759+/rzAeGiUma6qW7w4MH+HM4l3ORgNJYG1yENjPUQ33BB/DLdOv/yqFlXtUFlRYw///zzkr+lz7UYCySNDHyTToSi0OsiKDQ23DusTcbdsJTqEyw/wsQKTXv9hGtSbsIleRxja8ljGvuLA5FO8z59+pxhN8k+EaJLwNKyZUtfycsBWuiDDz7YV/JFFlnEd1n4nen/esvMBlX5v9VWW7nllluuep3j6cqRnk022cQLDi0zYdDFsE9kKPwM7ltYDH6zf6GFFvJ5s8oqq/juD+Ehgttuu60/bscdd3Qrrrii++mnn3xBJz5JK4jzCOPvf/+7W3LJJbNba4IYEjZhLL744m611VarEQ73hGva+cQTS5BjL730Ur8tDbuX5MEyyyyT3VoTyyee1s0///zV24gDC2HQ3eQ+TJ8+3ad5+PDh/hxgP/mz7rrr+nVg22abbeavSZz79evnGwHiQt4ef/zxNbqaBueR58SXtKVhaSK+YX5iIRIm29Zcc02/jWOJA/c5uVBWONbCSzuGNITpEg0HvR/KG+WGhc+CqrJfPkT1baOoCWNHWDE33XSTFxYhKo2K+LZRzAljRnRrw1dBhGgqSLwihYFznk4yaE+XR4imhsQrUrC6eFWCgXQhmiISr0jhCShPYNMGvIVoCki8IoWnkPaOmRBNEYmXECJKJF5CiCiReAkhoiQK8WJg2j5iZmHqE74ftA+myxniyNzopYa5tcL5teYWXsWwudTywQuEjTGRYilgPjB9ExkPUYgXHwHjaMHmWGJmBwSBT5cKqWCNCTM+pM0tVd/wLWXye8q5gcaBT6Bqgw/i+dQnhoakNkhHOPmkKG+i6TbyTR2ViYWPfKk0W2+9dfVEguVKOAtGTGDFFeJ4gu8PEa5KmHaZD8cboqER9UPUY174ZsSHY7nArKRU5hDefq/PaV8aCr5rLfQdsrmdk6tcqJR0NBWiFi+mjmEu+HKB8RK+fBdClJ5oxcsmIjQzn3mleOt84YUX9tP7ME8XMPHgYost5rcxP1foEsucXJjDDcbQGEsLHXQkx33ospoTCawsG2di6hx8IDKZIfNG2QSGdG/Drghz2HMe5yeddTBIzhQvHM/1WZgtwgSRc5lHy2b9KHQmCcsnywfr6hms070lvVyT2VFtskCDdJA/nE84TCgIhMMcXQYfiZOm0IlJOFEkYZNGLFL28z9XOpiOhntq8aKxooEgLZYHjFOFg+zcB0sn5zNZoqWV62AdG+Q3xxjkg5UPwuF4mzvOZvHl4QRp4tr8tzEy7hFx4Vjua6GTSoq6E414McGcPW1kMjwm/MPMt0JCpaAw4tzhm2++8QWRcRvEacSIEW7q1Kluzz339JMJ2mR/nMO0MuaolEkNqVgsrLMdsbIxK5sFlGuwn7fcme6ZqTr4xhCnHjh5YGZUc0zBPqs8FHDC5s14zmf2VOJoFYN4IbrMSYW36Lffftuv29M8pmFmihDCJO5UxFCEcoHQsxAe+cA8ZsTDIH0IAJ60uS75Slwsn9i/5ZZbukMOOcTnLXGwxoG4hGN6XId9ludMsIgAGdwPwuc8rsfvXOOWiDV5xnE4yaX7bR+iEzfygHDsfIQEoWamW+Z74p7QmHAMEF4odITBNsPyAchX0oETF9JBGihfDFVQLghz6NChXqw5FoHmnuOV+/33368hiqI0RCNebdq08XOeswwcONAXIISHsRmDgkXFp0JQwLG6KMwUJI7D0kKgwoFoCjgiRMXgNwPPhMPxCBMVPbSubKJBjuc317GKXBtYdVQOZu/kfOLKb5uWGhAoq+BcGxG2J6pci4pCmrCKaP0LfcJIOKSNdHFNzqMyGlRCrs11k5BuHo5QgdlvDUMuyEcsHq7Fb6aPNsgD7gNpYdJFwsr3Kgl5QbyIO0J2++23+3zj+og3eWTnk48ImU3gGFq8dYH7b2WHhYaLa3M/+I34cR+5PttJk4mrPt0qPdGIF4UHM94WCn1tYAUkp/BlymVa7DQodEmorHY8/zk/hHWzUGoD4aEihtfhfOKZi/BYLD8qPhWFdFl3slgQPdJVaLzT0l0o3LcwnohQ+HoLlk+aYKZhlhZdO3PkwTabz4z05HvqSbrrmmdA+FzPrs2CuCFUpBPri/hxbxB8UVqiHrCvDQpW+N4OVg+tZKFOI5IgGmF4iBHdEmvpa4NxMBx6hGJFeIV2MTgWS4SxFawKKkxdQDyIA1ZLIZA+rMuw4lu3uFgQwcMOO8yLMGOLCEKhFhLChLMUzsPysYWuPSAi4f1JQsMRCmfYhSwE8oHGBAsvvD7lAgifdSzCI444oujwRXFUtHhR0RkvomWmm4VIICBpbskKgW4i4dAV4j9jbzjfsC4CFgTdMQasbSwshBZ50KBB/jzOpxtGmFb5aoPKQ4tuL74inoWCQ1i6m8SNcUPEI5+VEmLdaPKOeJOfbCu2ciKAjCvhtJdrI8JYUVhEhUJ+4TaOtJAXCJkNA5AmrB/G8+gasy+E7bieIw84Fgu+GDieNGP1c23KlzWEpIvyRVyIA85JikmXKJ4oHHAQFxxqmEOFNDgGBxChwwbGI6hoY8eO9csee+zhHXaQTkieQwXF8UPSicSGG27oHU1YhXvrrbfcp59+6gYMGOBOPvnk7JHOx/HXX3/1osJx5riCc/kNOHyghX7xxRf99XBiYeKXdn0qABYSDiSIx+TJk93o0aN9WqiMVB4cZlgepTnYQMBxEML9nDhxojvyyCNrDJJzLk4mzPEGhOHxm3zE8uLabKfykr/sI872dJV14m9dwXA/Vi/nI7xYKxbX8LohnEuaibdBPrLt1Vdf9dYj8SZu3FPiQ9h0Rbk/5A9jo6SVfeQj+cC5xOnqq6/2zjfMcib/iTv7+E38ON4gHlyLriNlgGNoeLi/LKyTRuJC/phzElF3sJTlgKMJg8VAdy18LaMxwGpB1BkrMqsPAcICxaIrBZRtnv7WdcxONC5ywCHKAlpOxgh5yol1xMJvfHFizQhRDBIv0WAwLkTrSRfOwPLiKwm6iEIUg8RLNBiMLW233Xb+K4EDDzzQ7bLLLn5QnVdAQkETohAkXk0AnszxdLAc4DWCW2+91U9rxNv3WGOljBtfMfCARFQeGrAXQpQtGrAXQlQcEi8hRJRIvIQQURKFeDGDQK5PaBjwDad3qQ0+6bCZGDg3nGuqWPiOrthPZPLB94IMrueCl01tWqBwKSb9pYL3tJKf45QL5ZJvvJwbXh9HMpTHcFoeUThRiBdiY9OeJOE9oYceeii7VjuIlX0TaN8p1hXeFs/3IXCxIKb5Pnim8DNfmE0NZAufrDQ2iPj999+fXSsvyLeuXbvOkW+FfhBeXyBSzKlm12eaIV7S5RM87r0ojibdbeTj3brOjgAIZ0NXAD74xpIIl4aOQ4zwbWUy3xpD9HmCb9fnsygaP2bKKNXnUZVMkxYvex2kriTnoWK6YiGKgS8LmG2k0M+jaGzTpjJipou5aYhjRAP29QjvoQhRDAxhvPDCCwVP08T3oWnlzGZdaEpUnHjRFcjnACKEt70x3w2ml2EMzBw+8OY3xzBfPmHhWCMMi9aO+ajoPrIP+M9iDwU43pxm4BiCqVIMCi6FlrC53rnnnpvdk5vBgwfXGPRlYbyESf2YZiZ8gMAYi1UKtjNGZy8gk092LFPmkA/Ek7gwhQxdUebOCiG+tPpci4pCt4e84hx8A4TQDcIZCp/98N/GLOm+Jf1BMu5D3NMqH/mI4xSuQf6F3SvyljRx39ifr/t8wQUX5Mw3piTiv0E6bYLIZL5xjWS+2T0kL/I9cIEpU6b4T6Ps8yjKFuNfYTkkXWxPlhnKIi+NT5gwwZcxs8DIUz54Zx/bmRARrHwRDnGjbFseEybl2xyM8OAgNipOvBCSfA4gQiiE4ZMeCgA3GmcPo0aN8uMRCOFNN93kHWYwwMokdgaFnzD4/IRpV4D/LFbJeQJ3wgkn+Nby8ccf94XEzHsKLN0Grkf4u+66q9+eD+JgA762ML0MIsG0L1ZwgYpu02VzLY4hThRqFpsih21UxPPPP9/Hg+1UUip8WKkRM0SGcPhNPvP5DW89n3322dmjZsGTPNLF+aTfKiBCQPihUBEWYpH8OJtzERnuIfeSubkYp7T588lT4sA9Id75PPb06tUrZ75xr8J8Iz4m+lRwhhaIC107FhMotiEopInr4/iDc8PZWpMwvmWe32255ZZbqssEYVJmuBfJMsN1eOOcMChj1kCyjwc57GO7CSENFGmjjHIvaGiJH3D/Kd/Dhg3zcZd4NRI45wihhaE1ptDxO3QAURtYHYxlUUmp+NayU8gpyMWERcUiDhRCKgcWBoWJ7RTSRx991FdqxI/jrCXNB5WKwhkuNm5HAbQKTPhUcuLM73vuuceniW0IVXLKZPYRNulkoQJ17ty52jkIYVDJrJDb6ys2NbJN6GeQh6QZoaJBsTEd7geVyawvGgDik1Z52E5FRSxIIxYG4YXWF9flHhHn5BhkSNqAfa58Q5AsnuQb1yC9bE/mG/vIY66PALNu7tPSQDDt+pQ10ohXK8IAwiYs4hGWmVxP23NBnj/zzDM+vuQ14fI7DIf7TRm3ex4bUYgXFgWtTFq3AhM76WQjhAKadl4hJC0BKgcFulAoQAgXj+ptoSBSkSicUJ8fDZvIIo5UcKwnqwgQOq5gW75uFiAUWDqkARFba621vMgB+WATCiYhv0kj6SdOYT5i2SIWJkCIBvFICwvrIDmJIOtsr08QHK5PBacxMTFEcEkLZSzMt3xPKUlfsSB6H374of9NnpG3dj0Wygz5WAyWR1hlFg6U67t4dSEK8SLDqUBUpBBuNBPZWatVblDRKfxUVFpRW2jxEK327dvXaAlNZOYGulB0DRAb6+JyrbZt2/pKGcYDccoH+U6lRmDI+9A6SrbiYdytO23dL5YQrBoqF3G49tpra3TFQxBAKl8YNpYK2+sbyzfSalNkI5Tco2LzrVhIEy75ACHNVWaKAcFjogXyOgzH0lYJRCFetILcYLopjIFQeBjH4uU+xgy4QeUAk+pROCjstNaY5FRyWlYqBZWDQXEqNtYI6/379/cFla5RIZWCcSgb8LUlHNNDcBjH45pm1XEtxIcBXa6BdcF+ukG1wfEnnXSSFzEbPwO2kybiTdhhi851SSPbSVvy/pj1hSMNxvDIozQQKeLJQjh0tYhzIfmUBMcbteUbgso1Q2vP7hHpJN/IAxtzqwtYWGEceBiBpYywQFqZ4RjyE8g7Bv2pC7yhb8LOdo4nr8krehzEmWNMlAnTLLBKIAoHHECBwuEFNwvnCsTt+OOP9w4wiLdBvHM5gLB1HHmwjd84k8AJB1AAKDxsBwoADhjMUQTbcaqAAwhgvzlsAOL43nvv+W20lMQRRxlAl40WlUrLNYF40EI+++yzPqwrrrjCV/xcldmuj5iHC9ssfeQFYVAZQ2ckXIt4meOKfv36eZHleMIljWnXJX4XXnihX8L9OK5gUN4so0svvdTnI9cg3TjGwDIjzVQejjcnJEC4DEojCKFYJCEd5C8OS0gXDkvseMuPMNw0OA7xTeYb4W6yySbZo5zPg7R8Cx1+sJ97Sr5RXgg3vD7X4pwwDIN9OBsJ40A+kaZw6CNZZijjlmbygOlgaKDIf65FXDifssd19957bx82aaP80pDSBeZ+2ydRlLekg5FyRA44RJ3B4qVLxZgjla++wDrAgqFiCZELzecl6gzdE7pX9SlctKCIVziGJkSxSLxEThgfoXtS32OKPLpHDOmCCVFXJF4iJwy4Y3UxhFCfyOoS9YHES+SEp1W5XmOYG+zJoRBzg8RL5MS+UqhveGRfn2Noomki8RJCRInESwgRJRIvIUSURC9evDkc8yN3Ptuwz3R4U51PRUL4WHiDDTbwXzrw9C8f5EXy/PqCeIZzYe2+++5+ML8+XzLlm8j6DI/83HLLLWvEO1xsSpm5gTm57NOdusLLujwcEcURvXhRcMrV8UMh8AmIzf+EUIVCzLd2iMRRRx3lrrvuulorCZWAT0BKAfHk7WabC4tvShFLBt/DCfrmBp5C1uc7Zbzisc8++1THmffWtttuu+r1fFPoFApfIJAPcwMiymdWojii/zyIlyiZPZJvnWKEVwb4bs0+NqYiWKWiYrCdOZ0KgTfXsTbqo1ImsVcb7ANig+/9+B6UNMyt1cfnH6ShFE84gXLOZH35vqUslvoIk3scTlsjZqPPgyIiFB6EiA9sC4XXD0ohXPngQ2E+wKbiFTJLRT6swRSiECReYq6xWSySc9MLUUqiEC+6JcxeiROBpCOBJIybpDl+AF66ZJB5wQUX9OY+08gUOl7B+BPx4DycIjDOY4OsdOtsShqD+NLtA8Y0cKiAVYF1FM4jFUI4jCEBYR933HF+Xn26xYTPR9LJN9PJByawY6CbcSniaPCbLgnxJd5J56bEi7miiBP7sXzqOnDMFDdh95apbrguYZJ2G4i3aXRCiCfdTyy3MH3Ez/Kce0b6DcIj7oQfOqkoBrueOVixrwm4B5QzyhB5iwVskJ9WfjgvhO4N5YI4sTD+WJexQOLEfeC+cx2cyGhMbE6iEC8qHN0hHAUwvkAlyfVtXC7HD4AQIFZjxoxxX331le9DI3aFQLhUUBxB4PUYMaPCAdey3wbrVugZD8F5BAWZ7cQprBAG28whCBX1oosu8o4VSDOFl4qBdROKBIP0pANhJvxQnPiNoOHEgbxjTnobWwNmoMW5BQL40ksveXGdm8+BqLDAgwfm8CJM4jZo0CBfkfnNPGfhU1MEHvHEeiP+ln7ygieCiMc333zj00BaOIZ9WHrHHHOMDzPp2KRQCIu4Dh061OePCTdPVrnPXIc0WQPIeB/3buTIkW7atGneMUuIzb7BeZQz4laXmUvJA8YPGe8xJzKVNANqfRFNt5HCSkFi8jcKvzmGSILIUciopAhF0rJiOxO3EQ5ikM/Ti4FYYAVwXSo455qFVAjEGyHh2sSNFp0CXizEG4surPz8zic47GM6aq5Jix6mF3+Bdi7iR/h1beE5D6EB7g3hsY30kmekl3xEMLGaTKRoPNLijyh36NDBiyD3lPAQOsKiYpOniAPhEy5pNEu3GJhgEeuO/GExuK4JPSIHxAmR5N5zfeJkEJd//etfPh4ch1VHY2fCRznEkrKlttd7EELCJ738fv3117N7hBHlmBfi8eOPP2bXZoMFQfcK0eLG0wrmg0pRiIhwDAWbApsG18nVjQUqApYUBRsLI9+xtYF1QMVADKnEWID5HEKEJNPL/OxmqREn8o28LRYG65988snq1xy4BmHZEzQWLC/STh4iYFg3iBjHhl1dg3SFs4uGIATENwwf67aYBiUXWHdYh8SV+4UoGYgYeZiGWVoIqcWJbXZvOA8L2pZihDZXuWvqRClemPrdu3fPrs2GikgBQywogMU6LaDCpUELSmXKZaVR0HEEGgqDtdZg3ShaWwozrWldoUJjMSKGWF1YArWJdBpUNCo8zmIJY+ONN/aWk1lPhYKA8i4aXXQb98OaQQSxisKFfAIsCbq/CHEuq5F4YLmFeYrYIVqET/yx2sLwbYrjuYF7hYXKwv3i3htc18bugDJhkDbctBGHME7hOF19QZ6EotpUiUa8jjjiCF9Zad2pbIhBEgoQosFxxb7wiHnPwGjawC8VkUrGGAxdCSodXm8MRKBnz57euiBeWBLhuBSFnjhRYakQYaGvC1yfrglWApWsLmD5kF+33nqrtyoRn9pedaCbaY4jcErBgDVCyrnh/bDxJ/KDLiRixW+D/KRhoSvO+WkgAljPfF3AvbQwyDssLMSNfaSDvMWxSSh0dYVwyVuEh3seWkiki3tIXLgu9xmnKwZ5gFMR7g/liDSW4gks3c5iG+ZKJAoHHBRenAp88cUXPl44e8BxAbBuTjFqc/yA+U2BM0uF/+aAA2cMODBgsv9tt93W7w/hPBwWIBhch3DBxi4oTMRv4sSJfhsFHCsJhwhUNsZ43nrrLbfffvu5rbbayjtOIBziQPwQEiwy4oETC2Cd85MOJkgvFgKVObQ2CIt4Ebatkx84fbB12/+f//zH/fTTT27HHXf03SMExZxKpEFcbFyIhXjhKAKnIXYvDNKAKJFmrFWuefrpp9ewOLFoiAfCboT3A0gfacX5BmEiCNwDIHziy/3gniE0tTmTsPwg3209vB4QBvmFUxS2Ey7HkF7SzXVxxjF58mQvZtwryh5hcZ9CZx2UI8ot8cwH53Itiwf5RFhcE7gnLOYsBKuLbmlTGMSn/ETtgAPLhpawPsY08oHYca1c1kAIFhiVk3g1NHSPERz+12WMCrBgEGTSYOM4kyZNcpdddlm9fqIj6h8sVrqjpbDqyg29YV8ACIFZM+UOIovA1lW4gC4WA8qkGwFj4dE/1oQoX7A+bOikqSPxykKXgDEfTPhyBovp9ttvn+vCy5gcaQ27cohZuC7KD+4Zwyhhd7upIvHKQtdpbiyZhoKCi5fpXK8RFArjcqSZgW4G4HnqaA8CRHnDkIGIZFYJBmUZ4C0nq4ABWfrgcysixYLFhMjWh9DSBeFVB8ZQeGDAQwcsUCHKhXxjXvKYLYQoWzRgL4SoOCReQogokXgJIaJE4lUADGzzGgX/6wpP8vichk+Mwu/jGgtetWCgHnjHq66zSZQTvHVeim8JRXki8SoAKjkfH4ffKxYDb0LzCgLfER5yyCFeLBobBNS+seQ7vUp4q558tSloROUj8SoAXghkQrxiZ1wwqFDMJsH5vBlfyOdHDQnWSiVYXqJp0WTFizmlivk2LNc8TpUAr8Xo/S4RG01WvBi/mpsxLCFE4xKFeDH7Ad2uXA44GKg1JwrMyRV+4sI0KlhZK6ywgt/PQDXdtnvuucc7uGBupEIGeTmfb/+AMFjsmjiA4KPuNJigj2tdfvnl/loM3APjZziQsPPDecQIizjy6Q77c83ZxTxW5lyDua9sAB7IL67FNdlPvuR6UMCcVeE1CIupYHI5KiF+pB2LjXBzzQpKGrl3lo7kseQh420GY3CEa5CGMB425himmzwM022zZbCP88LwKSfkB1YmL2OHc5BRpthG+bJ7BHT5w7SGZSvXOaJhiEK8mPmAbluaAw728Z0eE+LhrGDYsGG+UNkYDoWZysZ2zuc8CuCuu+7qHVwQXiEFj+vY7KiESSU0xw14tM414E08uBbHcC2EkhkdcEO/5557+jiPGDHCT7FjFQOhIM5Dhgzx+6msSZiKh4qJYw+O4dMeKi1vIQOfLyWdODDHWBrEJ3yIkM9RCfmA0JGfbGcmCoSW7UkIF8Ekn5l/Ca/fCJKJEPkYiiLhhUJEGpjPiXgw5sg3fYg8cSHPyHs8YJNOgzCJH/tI++DBg6tnyGXs8rnnnvPx4r/lK2m/4YYb/Dk4b7E52jiPtDFNEHEjPBpC4sQ5TEiZPEc0HNF0GykctH5800ehMwccjFtRaSmwfM7E5HwUsNCSsYpNi5tvbAdBomW2JWy1k1CoLUyEi2mgw4qYD0SqW7du3qogzsxThoCGTkUY3CfN7E8bbyNuCCFWEccgfhyH6BmIVV2dOBAe322S36TVpsAmj5jzjMqLgFLBOS4UkBDiRD4B94GwipkDjeMJ3/KAdGMxkWfkPfEMJ+VD4BBI9lEWunbtWi2sbKMx4RyssClTpvjtfNfJcZQhhM0ezHCfSCuCSJwJx9LKOUxFnjxHNBxRjnlRocwBh1WeENattS0GxMIcJLDkslSSWMUyy6w2qAxUihDWi4kzQpn8ODtfGAh/XSF9VFDgPwuV3xYqbqEzHRBnC6suIJrJvMtHmEc0MggS8bV7Bkwzg6ghblhn1p3kfibTSjo5n3NYJxzO0ftlDU+U4oV1YQ44sCxYD8fAWDdnEOUIcWMsJRQ74lzMTLGkO7R2qGTMMc/2UsLsHlRcLFusEVsKyW/uEXG2uagQi7C7Woj4c51w3IwwmXWkEMhjLDcsMqyzEEQIy5du7kknneQbAYtnMq12nziHfZxz2mmnVaelLg2nKJ5oxCuXAw7MdioBXRPGQrCeMO9rm98bS4SCyHENPdhKXKmELMSZNFAhbRyvEGjpiT9dZMIgLOb5KrV4MdOsdXWpuMSDa+Z6cvv55597oeDecQ4CRZyBe2UTK3IP6FbWBtfjumG6C33lBTGiy0i+WVcWsGLxnoR4YU21bdvWp5H4YbmFacXqIq00FnYOVhvnWLeUgf3wYYAoDdE74CDO7KNSMBBMAR0+fLh33AAUQpw2JJ0z0LVE5BAxKpc5O8gFx1HgLW9wHmFOOCDcnyTt+H79+nlHD7TajJ/ceOON/j8Q5zTHGyGkDwcYOPX49NNPvWMPBID8AOJDF8fSRRy4njlxsDjh2ILfoSOKZFrC/fwmv3HeQX5TRhCfMG0GlggWJoJHPLkelZ1KDnT/2DZ69Gi/zn0lzTZ+xLVwaGH3ErgO18dZCvePMbHjjz/e70umA9hm6cTxCdciv04++WR/LRxokC/kE8KFKF199dW+zJCX5PGvv/7qz2OdPCYO5BH/n3rqKffdd99Vn0NYY8eO9QIXOkcRdUMOOESjgBhgVYZdw6YAXVPqj1mYou5oPi8hGgisQYYAkmNqov6ReAlRjzBGRtcYy0uUFomXEPUIQy3FvMoh6k4U4sVcWjaIK+KBe8a9E6IURCFeVAJaNBEX3DM1OqJUqNsohIgSiZcQIkokXkKIKJF4Fckuu+yS/VU6eLkz3ydLfIJiL34yhUz4WREvhfKuEfB2sk0/0xDwEiEvaO6www5+/rMNNtjAz5xh8akvyBvyAPiO0H43FXgIQj43dSReRRJ+FFwqEKZ8FZLvO63wMkNFOMkgwmcfBvN9XT4RrE8QUT4l41Ou9dZbz51//vlun3328R9Ns93mKqsPyBsTRL45zDWXWqVCo1Tox+iVjMQrQqi8hXz4y8uS9SkaueDDZr6F7NmzpxcxBJPvGZlSCDFlwsJSvfvEh9ZNzfISs5B4RQgfNvPBcW3Y96mlhtkWuBZCmRYvPp4u1WwXXM8+9AYEk/iIykfiJeYaRAvRKERQSw0f8eaankdUFlGIF10SPnRNc8DBIDHzKpmVwbG2j4FN5mRifiVmzsCRQjg+xHgR3RvOTYbLuQx+m5MNBp6TUFGwKjifhd9sA7pLSyyxhD8XBxQ2eyhWAddi9g7Cz8Wbb75Z7WSCwe9w4kHOK+TNdcbFbDCftJI3zHTA9QmXvCH/DKavIa8QIfZj0TCBXz5I16RJkwqeSZV8ROgWXnhhfw1LF/mCwwzyMelUgzjYPSRP3n333eyeWWOQ9hE09y90dpJrLIz7xLVIH3lL3gAPN8ijXA5DyE/Ki91XrMkwnpxL+ix/2Ud5omtrTkQ4xh62cCxjdiHEmftAV5x8sLKl6XXmJArxYnCWWStxdsD0zBQyq5TcWBxhUAmpSOHTJ4SEgc2nn37aT6UxaNAg/yTMhISKzIe0HIejCcK1LgfbqDTmZCNt4JvzqeiER2Hjvx3H5Hs43eC6OKCw7hszbuJQgjDzTZmy1FJLuVGjRvnjCAeP3VbJKPwmkvkgTnYO+fPkk0/6fPzoo498PjLwy7gYEB6VGicZVDicTjDnWW2VxqwtE/3aIE7kM/cEpxpUZqY7Qozff/99H0+cath1ufek3ZyRkCft27f3+8DuOSAEobOTpDAYiAnX5lxm5LXJDFmnccvlMIS4Ex+cd0ybNs3HnXha2tnH8vbbb/vyxKyzlAMsU87hXjLfnJ2DELLf4FzEnKmfuE9cn/zgupRji4eYRTTdRqwEhAqx4YZbpQNr3Ux4wvmjqIAsVDJafEQBUaJAPPTQQ74wUXhpYbEewpaWfRRQWuhwXAWo7LTyfP5C4aTyUVjNUuG8q666yu/jt1XyzTff3LeuFFRmAc0FhZdBbq5LvBkMJ6y5hYF+Jj0kbPLUKgSVg202mynXxGEH+ZQPRBnnFaFFWxuINnlNGskX8p98xOJAyIjfJ5984u8j96NXr17+HK5FHMN56esC1+SpKGWGshM2BMSJ+wVpDkOIN+WJskh5Q1yIt8HMvOy3OCKglFfO417ym+txDpYb17Myg2XH+VZWOI44ElfORVzFbKIc86JgmAMOCgEFjAJDAaEw5YPCjzViBZZKRxePhXMJqxCo1BR8Kr2dT+GyLgyFkBacwkchNQuIysg6S65uTRpU6PouvIiBWQ3kKYJq+YdwtGrVqtpizAfpoKtmaSwWLCeubfmI5Txw4EBfYblPNsNsfcC1aDRIF4Jp6c8F+ZIv39mfL93so8wZCFN4Dl1HxInyRONkQwn8RrBpEFlqK9dNkSjFi5bKHHAgBlQeRANLIl9BpxDipAKRowC1adPGFxZaVlvCFz7zQYHs0KGDN/3D8xErAyGka0Yrbd0DKg3WD+MhFFAqaxqhNUDB5TgEr1SYZcn4IV3fvn37+rQQdzCxTgMrrXPnzt5SQYRCiDsVNJ/ViIhQQcN8tOmisX5Je3jtuRFxGjssK+JM9y3fh+NcM3QYkgSBZ/wt331BKM2yAsST8UyzuimzhEN8KMN2HziHskgZoozlK9fWbW5qRCNeuRxwUPjodrBQAJLdFxyosp3jeeN7rbXW8oXXzH7emOc/5j1jDeHAeG1wXv/+/X1l53zCtfETrkk8KYRUNmt9EQdaWquQuQol3TkKNuEiClTuQhxU1BUsRUTmlFNO8QLLu1km5FgJDFKnjfsBeYkokBZeSGVckWNpGBg4p4Eh/rngWPLNGhLuMfkH1iAhNOQF6zQIucACJ8/t+kkQokcffbS6oUm+qZ7PYQjcf//9Pq+499xLXsTNlzbKHQvp4b5zDmOvxBOwxNjHsAP5bxBPBNzyJVe3nHznwQJ509SI3gEHN5l4P/vss965BAUfxwo4bUAAsARYx+kCBZ9zOR5oMTmfgjFx4kTvbIFKwn6uk3TmAFRUazVx7ICDiFdffdW3fpxLPDmffXQpWWg9Dz74YH8OjkCIK2m58MILvRWYhGsTVxw6cCzxpJKxHRAX0oTTCLaRVtaBdfIGRxD85npUFH7jhCIcZwv3U1m53rbbbuvzhGNJK8fwHwG2OKXBMaQdAcc5B/nBNiomcTcHHYRHnoYOTxj3Ie9xqsGCGCAQpIG8ZN/kyZP9/SSPuceEwXlcAyva0k96uNdYfAMGDJijcSAeHEMjxXmIHA0L6cICQgywdNIchliDQxikj3uKwFt54r7g0IO8MziW8Ig79/xvf/ubT1sI+R2OtQH3nDynbNJo4WCFNJvDFLtvrJNnOKng3lUaNFRN0gGHdUFydc3EbKgkCANw36n8v//+u7v33nubjOMTyglWDiKWBpYa+yhT5QSWHXWk0PHamJADDlErjMFh8dBFpILyn0FzG6sT5Qk9C7rJWHdNDYmX8NC9petCl8Sga4QVJsoXurSMl4X3rakg8RIexmHoOjKgfOCBB/q3zBE0ezAiyhMaHMbumiJRjHlRiejSFGsF0PVh0DPf0yAxG/KKgWwsLvLMnso2FRhbofuc6/UJ8oVBY3tyLEpPvjGvKMRLCNE00YC9EKLikHgJIaJE4iWEiJImLV68uW/fnfHtXvLTIF5a5OkbXxnw8mK+z1JqgzfNw7mfYoU30pvitMu8jpD8lChGeKJsn33FTpMWLz7Z4Ekm8OFw+KIfTyp545wXNRk05Onb3FRaRJIwY4c8SH583RSg4bKyEjM0oAhYJaBuYxYso/CzEL5xQ7CwuPj2jNaKb+qEEOWBxCuAF/4M3uep9LfLeQFVgixiReLVhLF3Z4SIkSjEi346U7nwMi0OGPh6nsF2YBwiOesB8zHZQDzjWjjRwIri+69cg5WEY1OSMK/Scccd5+cCYz6qcLFxDywzBq/NaQTnht1OxtDMaQRzYeGkIg3CYaoZjiMsm5eJt7kZc2McjheHcepg809ZuHzCE16TfOE4vncLHUsQZ/YxzQrncT3izuynTGVNumzuK5szy67Bw4rkGAkPNswxCeeG+7lmGGe646QReCjCvcLaMycVpJGXEA3m/uLa5Cn/7T4m4ZpMFWPxSB7LPQznuKIchOWE+8UnUcSDuNrb88zTZc4yKHPhOCVjfYTBPhyIhLNLWLzJe8K0acoJk/LIOYQbDvoT3zCthJEG95h7bS+P270C7iNpNach1A8eLhjkud0PljPPPDO7J37KXrysclOQcHqAcwNuJp+yAAU/rMBAQeSmAXMejRw5svq4Sy65pLoyhbDfBqKZSYEpnPH8jCMHW5hDyCoahZBxMZxZsI1xMZuShIpCASMMnEbgbIJZW9NgAJyKSNpwQGHzbRFHRILKgrMI0kDFosA//PDD3pkDjigovAa/uR55w7zyVoiJHxWDQs55VDrCwlEFDitIm1VEKiuD0+a0hAcWTNho6QbykckKuRbOMsL5qaioNBLjx4/39wrhtP2E8cwzz/iGxJyA0DDZtck3Jv5jGh4sQpyfEF7agw72k3e33nqrvy84DCH/7R5y/8PzyJOwnHAc68SDuDLvF/eduJC/5Dl5Hz6B5hzSQrqJ22GHHVZdDmkYcA7COvcqbFwJI3l/STdpGzFihE+LOfug7CYhbjw04jjSxX21tHE863goJ144KjnooIOqyzgNBXEindz7Pffc02+vBMpevCjQ3DAqG60OH6EWM6MoFYWCgtXCrJTc1LQCUiy0rBRYCibhIpJYasQVq4s4Upm4fr7vMm0yQioFlR4RNCi0WC605lgKfHNHmBzDNiq6VVYgf6iApJWwTMCBfKMF5jyWfFDBbAJD4sV012ElpkKQdtJE/HDUAYgeQkzecD3CwPq54YYb/H6DOJI2vhEkTmbNIhzkB+Hwm0pHXGkk0mCM0r5DJBzyKLQ6aoO0EQ/7sJl4ITqkn7Apc6GVwz2lISXdCA0Nkr0+w/E0LOQ98TWx515xX7hX5Kfdb9LHPhNvxIh4pM09x3nsp3EifoTHeQZxJG52P8g3yjhxYOZXGlry2spipVD24sVNo2BwA+sCN5xCafPW1xcUDAoQhY2FCnjIIYf4goVoUHELgcrJuYRHF8y6G2kQdgjpsRYYEcNSoIBSodOsy7pC/puFkYQ42bVIN+khDgb5YBZDGmGauAbHWZ6ykKZQ0POBEM1NwzRlypSC7xuQTks74oklaKJu8Jv7S/k1MQfuG+kN04popokL4oPVTBkmjELvLeFzLPlSiZS9eFFwcYMVWhghVBbGk6gghrV6QGtIC0qLSWtZXxAvRIJW0xYKJoWVAhxaCxSgMH5JKFxYb3Qh6IqE8S8UCj+WBy0v40i5ZkYoFsQEy6oQAaFycbxZI0B3tVu3bl4Aa4M4U8kR8DBfzVrJB3lMntuxhBMKbiF5inu5cNyJc7D8CwE3etx/s7hDaGRIB1YhvhiIF2UE4U6mNe2+UYYZq0UgzZovBMoVrv7CsliXslWulL14Ye5i0fCmOyLETcQfokFh5QYhTjz6p6UOCxz7MbURBwoWM2fUBzZ4TheKQocw2vgTv6lMxInCiajksjwQZfYTP7pcdNEKLZwhtNjmWIJ4hAPDuTCrgOPD7hGD+IggFitOS3r37u0rW23QkHAPttxyS//f3o2z8Z/aIA5ULvIDIeD8fNedMGGCP4drYbWQHmugyHu6q9wnwgnTlwvyjLDo4hFn0p5rED0Jwsd1rCwYZhFzf8lrxiktnmFauQe5Ghy2cwxhIF5mbRcC6WEMjHvJNayMVgJROODAsQCtFzef1ooWhYpCoYAdd9zRFxJuar9+/XyFMSccHDN27FhvDbCddSqEpREnCzhJ4Df/WQfWccoQWhwUOnOwwLFYODhqoPvIeThXIH6cizMK4sQ+flNYzYFCCHEkn5966il/HoWUtPEbBxRczyBsxNicV4RxJq4I/WOPPeZ/n3766f4/S3hcCE4c6Gb9+uuvPo6cjwVHfPhN/MlPHIWYk4m0OBBPnJ8AeUue0YVi2hIEwQapOZc8tHXgfBydEBeuSz4h9OQrx9JgkUdJGGznGK5LHhPm1Vdf7eMChMeCcxTCYR95YAIR3kuDvEL0cGiBEw8cbHBPIYynwTauT1hbbbWVTzOOXM466yx/LPlN3Lmf3BcaNBozu+ekFSuMxpZ4c16ahYqTFxyQjB49utpJDPnMOVybOBF3g23Ei2tQD1hw5ML2K664wtclc1hS7lBvo3bAkYTWNPwv6g/yFGHAgihnEFniyn9RuWg+LyFExSHxEkJEicRLCBElUQzYJ2EwmUFjBkJF/cJTSwa1C3m1oTHh3jNoXZ/v7onyI9+AfZSWF+LFIuofxCCGt7ARLxow0XRRt1EIESUSLyFElEi8hBBRIvFqQPjGrJhPO8oJPn0JZzJIkpzholD4/Cbf50NhnvEGe/h5C2/D5/rsqtSE0wTxWVdd0i7mDolXA8J3aXyfFiNU0HzCi8jUZUYHPo3J9/FzmGcIBAJmMN1LY31ojOiacPIdaKHfb4r6Q+LVgFD5bGI+URgx5BmfKPHhs2hYJF4NiH1wXe7wqgSWVjkQQ57xDTDfAhv2YbooLRIvMQf2EayoG3RleaFSlJYoxIuxFiZiM6cOTG1jhSO5j/EH28eYBFPgMJeT7WdGSsZQcFDBVwU4cAgHovnNm9u0pDhMCGeuYFyDbYQVztlk0MXh7fSw4DKeY5PTcQ4TywHbC3EMQvqY84lzLQ02bxROG9LSQDw4h33El2llDK7LlCrEifBYyB+LM1YX82Qxmwgzu1p8IXQqkrymYRMCJsUv37xeTz75ZLXTC8INrb4wz4qBuOXKA5xVEB/Szn0mrggO5chmVCF/wvE0ykEYxxDuB1MZAVZXmH+5pqUmTWFehmlkGiG6yuuss051/PPNsEs6KRf24m44CWMlE4V48VQJcNgwZswYX6HNmQKFm8qfz+EDb+PjUOG5557zhYDCgeMGHBastdZaXtCAQsyEhYTJb8LjeCuAPOl6/PHHvSMDnq4lYYpeCn44gR2TwREmMKBtg7wcW4hjEOJB5eZ40oBjDESAyoKjCtLATKX2FI4wECcqEfEkzQgd8QAKNvPRU8i/+uorn5/E1+aop9IzuSNTkZDfhGUQT7tmmG8hNBakySozIKbEwUQ8Cc5CQgcRO+ywQ3UFDPOsULg+FZqGxPIMQbQw7QEB6SNN3DPuJw0Jx3A9FstT4k56uF840sD5SAjlkQX4nCXMPwQxiTVoOPEgL88++2y/bjPQcm0ailNOOcXnCY5cmIE1FNMQygPhEHcELPQ3UMmUvXghRtxUrCUmIcQyoLJRmdlOoURg+KyFbRSypMMHWk1uKoWZyoUYYl1RWCm0VmgYeKWAsJ0CyzoiYIWBCoEwUvgIJw0qtFkYVFrGPhDDJFwDoSBupA3Ryfe0ztJAvLk2YZIewsGKIJ+AuCJ4DCBbS8zvsOUmH7EW+H6R9CGudn4+OMeuGeZbCA0JlZ4GwsSY31TOXN8h0riwj/iSTmYbDacuLhYaG8JCsEkjccayYZtBWsgHrss9Z/ZYjkM0OJ98MWuIbRxPviN03IO5gXtB/lEOyUub3pkyZ3BP2E+cub98y2cNdhqklXzn3hcr9rFS9uLFDaOAUWiScJO4uRQAAwHLdwM5nv1pWOuJaNnCtREtoFBTqLBGKHxplhL7CAeBM/M/bcCZgoaoIC65KnUuOD5MX5g3bKdShtckTyxtaaTl7dxgYo0oYw1ce+21qVZaLkxQ6gqNQDHfvpJn3EsaQrvvxNvSQVzq80N17kUyftyzXGUWkvfcoJxRJtmP+JKOfOFUEmUvXrRyCFhyTIcbRMXnf2gBYJUV6vAhCdf6/fff/fgIraAt1t1BELAMuB6tcpp5zjEIFuJEi43IpcH5XIfWNc0yqyukAYcZoRVHnoRTL5cas75IH1bo1ltv7S2ZXISVDdF488038x5fG+QBbugIy8CyTGtsACHB2sMCCu879xqISzgOl68hKASzBENYZ3uxcB7l0yy5GD6qry/KXrxokWi1N910U18ZKFDcZATNugZ1dfiQhBu/0047eWcfhIFlxJRAZq7TbWAbLTMVgbilQUGiu0ihCrsqIQgv18A6oeWsL8cgpGHQoEE+vwif/CDO4YB1bWDJUnlJB//rggnyueeeWz0GmQsaAfKKLj95gdjVpSIbWMo4DWHAm7RTfswizgXlp3///l50iQdh0PgA5Yr7xMMgrGn2tWrVyu9LAyvIuobh2J9BODQuxIl7ZJZ9roYuH+QTPQLiR9zD8dZKJ4r5vLi5VEpaP+b2wZkClR9oZWkZEYtCHT7gGAFnDMB+nDCYowuceeBc4sUXX/SOKah45riCa+IoAzHDWQLXToNrUIB5ihd2admOM4XaHIOEsE788qWBdcK0NOAMgn2kgXOHDx9ebckk0wvkE/lrThxwzoCzB9YRFc6xa5rDimQ47DdnFEBZ+uKLL7zI5xNOjkfoKGs4y0C8zjvvvGqHH4RrecZv4hSmxRxNJMFxCNY3ZQZHFeSBpS/tPNLGdYgDwoIVg7ML4kEDRD6wD0cYiBnp5njiZHlj94P44RyExo3zLM8MrkuaCYv7T1ih8xDCw1kLTjwMtm222WbVxxgMCRA/yiWOOBBqzrW4xA75U1EOOET5Q0FDELF8EAIh6oIccIgGx7pcEi5RKiReoiRgcdG9EqJUSLxEvcMAPIPj9fkUVYgkecVr+vTsDyGKgLEunsjW9/tjQoTkFa9JX1dlfwlROLw3hYAJUUryitd332V/CCFEmZFXvKZNy/4QQogyI694VanXKIQoU/KKVznBB6i8qc1S2yyVvFXNk665+bi3VPApB5/uhAtv4qd91sH2tLTyzR6fs/Tt29fPS8bnTHwaUsg3dwykJ69vSzj9TWPDveNzGebE4l0x+0QrRiiz5LuoX6IQL94X4rMRPtugEPO5EJU1CW91890YlZBvvsrxaRefOzDPE9/e2cKXDHxGkvwGkALPR+ghCDOT1/ES6Oabb+7OP/98t+uuu/oPdNleWyVhMH3//ff3C/NoMWeZrSOW5QKfuXC/H374Yf/pVPiRdWwwvU/M4luu5P086O232rgrhu6dPbTxQKgQJb4XBCoqE9YxAaF9HI1wIWp8A0bFrs8pTOoTPixHYJIiwzrWz6hRo6o/SkZoON5EhQrALKAIDS+BktYQPgKmohf6pM9mTijHimWfFpWTNVhXuCfcw3JqHGIh+s+DMLtNuMAKdDjtCy01gssLkuUqXPmggHfu3Nl3j3OBZda9e3c/E0FSuIAPvCvlFQUKKhapELmIZswrhPGhDh06VM8sgYgxBQkWGtYELXY4/1IMUFmnTJlSQ6RDaH0effRRL9JCiIjEi64g4oSnYiwMBr5tTAsxw5RkYJfxBSaeY4ystnmkDKaiYXAYJwZ0m/lN+Iwh0aVm0DicJpmBccJnH84REBS6rXXFZu3E8iLcNOjaIXAm2KWC66c5cyB+NrUNaSWvsQABYWXMzoYb+G0PS+gOL7HEEj6v6PLWNnZF3pLfaU4saJgIi2twb8KHGUxWyfxd7OOe0IAZxNvubaFdN7sW+UB44eSBWMmEudhii/l0cd2w6028rOwsvPDCfnJFUf9EI15UBiws+rxU4rB7RcFl4JsChMixYHlRAMNClwtm3aSryRgaY05UFp7m4WgBxwaEHQoh3VbG2nCOwPEIps26WQg4BaFg20IBp1ITTlp3EGz73IhkISBIac4cqKzsI18RBvKaRgQQe+LHOcyKyn97oMKxRx11lL9vOJKorSuI5ckDjaQTCwSBBzc4QOH+n3DCCX7c08ZDGO9kEkZ+c0+4rt37M88807300ks5HaekQXg8zCAtw4YNqyGGpJ3yR1xw8NG2bVtfXgDx5SnwwIED/fVwcEJaRP0TjXhR6EyMKMhYO9Y1pABjPYUVg7EfrAWrfJxLK24L6yEUPgQMawPrA4GyMKmk9tQPC4zCy+A4lZvrMAFi2oyZuVhvvfV8pWR5//33feEnrrm6jMDgfZs2bWp9mji3II7kBeKDENi4ItcnjVi+7DfLl7xPOq8gT0w4EIGrrrrK77MHKnWBmUK5Bvlv944HTJQBu8fAPrYxIaDFgaeyND7cw0Knw6YskBbygfIWWlaAmFFWOI57Z9OUExee4lI+KR/kW4xjsDEQ5ZgXBZNCaB5mKCDhHPdGWFHoLphgsOTrPlApQxCVSZMm+d+0rKyHYWOFMV5VKIRPnFmo6FQsLBvEIhecg4AjHNYlq29CZw4IN0IWXovuEq6/iDNxBywtjkNU7Ckq1goVGkgbFheWKWEW8i5aGogo59o1WGhgmEmU6xGHcB/3hPgCwwr8pswUY3lRpjgnWR7yQRyJkyg9ZS9eVB4smxC2UbCskDD+cv/999d4J4pKRWufawyprtDa0gqH16KFx4+hUWwFpYIT39qsN+uKkabkNajAWIgm6OQR24qBdDBeRQVHGBCpEASJV1YQbutGIWI8PMnlvAIIk/fbEAE7r9j4mZUTXoOF69OY/fLLL17Yw31cF7gu8aHMYE2ZpWbCm4TtCDndZLPCCwXrEEstbIjCBkDUH9GIFy2gdc822GADX2jNoScFm/EOtlNIqSAMolLoiil4hUCLjtjwThbXoXvAWIwNXiMADPQW4wiB7gVhMjaTr0JTeakYwJv1u+++u0+vDWxj/ZhFRN4waFwMWEZUbio+QhmmgfQRN65HF46020MMrMak8wqOAcSO/CFfON/ix/20uegLgfxBULifPFkm322WVgRju+22q+E4hYcD1tXD6mI7FhkQB8Sf+5RmiZHPLKSVa5GGQiHtpIv/5AX3IRyfFfVHXgcckye1dH23bVwHHIw50cWzrgmFjhb10ksvrdF1w+kEDgg4hpbzyCOPdMcff3x2b35omalMButYHeawgevgAAKHC4AjBJwj4OACKKT2YinOFhBcCi2ilISwOBcnFyEIMHBdO49juRbXNsiPAQMGeKcNpHPixIn++JNPPtldeOGFNY7lGhbnNAgLZyPmRIN40WXEeks6c2AcCXEifK6HwwmuT3yTzisQmL333tuXJ/ZxT1i4bwcffLC/FmlD0HLNtso9QEzNeQWOJ7D8cOqBFUe8OdfyCiHjN/HEcQr33vKYOCJciBnWGXEifOJKePvtt58/LgSLi3NII2KIlW/3iLiTXnPgYflo18Nxx3fffedFi3JJWeR8jhHFUWcHHOXyhr2oPLDCEByzhhoDuo9YsliOojyRAw5RdtANZGksrAtcTJdQlBcSL9EoIFw2ZtUY0NVjPCvf6ymivJF4iUbBxo8aC8atinlgIMoPiZcQIkokXkKIKJF4CSGiROIlhIgSiZcQIkoqTrx4byftI22wFyMNXpCs7TtEPpEp9bdpyXg1NrzJzGdCad/9FQL5VcznUeWMzSohyo+KEy8+OcklSIgEH3AbfMjMuz65sM98wilXSkEyXo0Nn7Xw3WSuRqA2+LyIfOPTmthBuJJOUER50KS7jXwHl+vbOuBFRoSQitiU4DtNJtmr63tQWJF8N6h5rEQpadLixYe8vKxo8PGsTb5nVFIF5APjQuezKjTdfHCdNn+V3lwXpSaveM0zT/ZHE8G+XK9U6AbXd/pKEaYQhZBXvFq3zv5oZJiaBScIWErMwcQ0GQYTDnbq1CkjtPP4fTbjKVCpGMDH+QL7mVs8hKl2bGCZ+bBw+sCcUPy2Sf2YCwrrwmAGAuJCeMzZFI6HMOULH/tafGyOLSNfOnKBJcj0LFyLMJkmBhiP4jezfxAm1zWY98ziaA8C2H/55Zf7KZuJl03Ux8A8+WAOI4gjY1UcY/A1f5iPhIloMRbIXGLkG8fbOcQ5nEuM8Oh6M2MJYTDWaJP1sY/piAjf4syUOoQPTGPTo0cPv518paufhp1P3hIPm8uLuBA+eUUYOM0IxzmZzoj02D1jHrC0+bfIb+ZQS46nUh7IM9Hw5BWvYGqoRoWuDmMwDGzjHZrJ8oBCRsVjmmGcRjz99NN+nneDCeioYGxnKg28S4dQwAkTmBoaRwnPPfec/41YAMdYRUIUuDbH4FyBMSEqmlVECjaiN2LECL8/6bgjVzrygQDbADhhIrZs47rMb8W1cRRBWDYBIE/IcA5Bntj1ES8cYXBd0ofoA2njIcfQoUN9+JzLNqv8QBjkNU4svvrqK98lREQQVaYsId9sem0gfuFgv00JjYMT5uxHtC1eXOuFF16YNQVTJh0cw7URFSBd+Kpk/ibyNa2LCoiX5S1z1lteEBfCJ/0WBmJjTxC5Z8SHMsIU13vuuWeNe2owJxjpZD4wg7hfcsklTW5MtFzIK14dOpZHv5HWFOGgAFI47SmWTfOMFcHgOgWM/wYFmHNodRnbmtuPgalQjBsRDnFCHE1cDASK67E/dNwBudJRG8zeSlicj3BQ8TiftFK5eeUDIbV4ILxUZqw+m8c9HzbzJ+GzhHCdG264waeddHN9fpu41wbpJ17Ek3OZxZTzb7nllhoCQb6yj7QiBmaVEn8aIPKa6+caiyMvyFvEF2sr+YSQcgKER4Nn4gZYZogiAsoDHMJC0JNw38gL8gSw4Hr27FltDYuGJa94ZSeKbFQoKDz9oqAnCwmVP1dLDJxbnwPHVAqbxtgg/FwixD7rxuZLR7EQD0QT0bKFSm2CgqhjPdAdwurh2LpCvDk/Xz7ng7gSt7BRISzyoRDxRmwQEsSPbltalw7ribylgQpnxM0FAkm8csF9M2s7hLjgq8AaLQQ3tKxFw5JXvMoBe5pFi0rrGVoSiEBo9VCgwtacAk3FNqzFrCtcL2yRqTQ4FC1EjPKlo1i43u+//+4tASq1LdY9oxKzj64b+ZNmRRQKFb19+/Y1Xjol3YW++8Q9IN/DsT/CogtG2IWAICFaO+20U+r4EpYo10FIyFt+5wNLLpcVTtpef/11b8WnQb4ydoj1iJVqY4qQTxBF/VP24kWFp+BSWBhvoPIbZlVQgDDhsTzC1pxj6UrQFaC1rG1sgm4DhZNuBQPZSbg+rS1dOMJjcB/norkKeki+dBQLYe2zzz7eCQjxIE6hwwnygW0IN/ljIsF/xqpIY1jp8oEQcg26wwgHccfRiY0ZmXXJwDXCkazAWFzEhYclnMu9IP/Ih0Lgvtr9IH1pgocQkS6O5Rrc8yTce/YRR4Q3tJh4iEE3m/3cU5x55GqQaHToKg4ePLiGkCKIDPqnlRtRGvI64MDBAE96GhNaNwoShQMnDBQwHELgIII44uiBwoiVwW8EDacROG6gYtF9wlEGDhGoROwzhxNULJwmmGMERIGxFv5T2Lke19hkk038sYTH9rfeest9+umn3hFG6OSDY3HMYE4wWDfHHbWlw45Lwj6Otzgb2267rY83acPhBE4ecCwBpOmpp57ycTz99NOru1JcC4cdP/30k88r0kn4ON4gXwxEnPTaeYSHIwmsp8mTJ3tnH/369fP7rEs4duxYfwznUG7C9BB34kZcEdMrrrjC5ykkrwWs4/yE+LLgJAOxJBzSY44vDK5FHB977DH/m7wlTSxYfQgK5YL7RkNz4403Vo+dIfCEx3AA+UW6zjvvPF8XgPzhuuFYG9Y9zkawdu044kxXk/OJg6gfqI91csDBDeFRuBCxgrWGtRQ+PQ3BCmUfQlQohIflqvGu0iMHHELUE1iAdP/pyorGReIlRBHYmGfylRLR8Ei8hCgQxlUZs1R3sTyQeImKhocs9jVBGlhRhT75xdriqSZhisZH4iUqGh485XsPDyHiqWshcGyu98NEwyPxEkJEicRLCBElEi8hRJRIvIQQUSLxEkJEicRLCBElEi8hRJRIvIQQUSLxEkJEicRLCBElEi8hRJRIvIQQUSLxEkJESTObDzq5gP0XQojGINSi5FJDvJgXOlzYJoQQjUUuXWJpltwR7mQRQojGItSipE7VEK/wIPsthBCNRZommV6ljnnZSUII0diEmhQuzVq1auWSC0448d+Iw00hhGgs0CC0CE1K6pRelRBCRInESwgRJRIvIUSUSLyEEFEi8RJCRInESwgRJRIvIUSUSLyEEFEi8RJCRInESwgRJRIvIUSUSLyEEFEi8RJCRInESwgRJRIvIUSUSLyEEFEi8RJCRInESwgRJRIvIUSUSLyEEFEyz5AhQ6rmmWce16xZM9e8eXM/2f18883nlwUWWMDttdde2UNFzEz7faZ79+Mf3Cfjp7qvv53mfvl1pvsz65Uldpplym+b+Vu4jou2dl07Lei6L9/OtW4l5zGVwJ133ul+/vln99tvv/llxowZ7o8//vCuzyReFcznE392Ix79zP33ufHutXenuOkz/szuqWxaztvMrd29vdt2405u9627uM5LLpDdI2Ijn3ip21iBvPTGZLfLkU+5btv/x506dLR78Y1vmoxwAWklzaSdPCAvyBNRWUi8KogvvvrF7Tb4abfpgEfcw89/md0qyAvyhLwhj0RlIPGqEG78z0dunT0fcA8+Mz67RSQhb8gj8krEj8Qrchh0P/biUe5v57zkfvx5RnaryAV5RF6RZ5XywKKpIvGKmBkz/3QHnPy8u/KO97NbRKGQZ+QdeSjiROIVMYef+7L796PjsmuiWMg78lDEicQrUs677k13y/0fZ9dEXSEPyUsRHxKvCHlhzGR31jBVuPqCvCRPRVxIvCKDN+X/evrz2TVRX5Cn5K2IB4lXZFx1xwdu3ISfs2uiviBPyVsRDxKviJj6ywx32a3vZtdEfUPeksciDiReEXH7g5+6KT/8nl0T9Q15Sx6LOJB4RcT/jdTTxVKjPI4HiVckfDZhqhv93pTsmigV5DF5LcofiVckPP3q19lfpadVy+au78ZLuf47dHW7b9XFLbX4/Nk9s/ZtslYHt2KXhbJb0lmu04L+fJYNV1/ctWg+T3bPbNjGdQ7YeXm3y+bLuDatZ8/B1aH9fP46yWXNVdpnjygdDZnXou5oPq9IOOTMFxvkpVTmv7romHX8xH7GzJl/uotufsedefUbfm6sDx/s524d+Yk7aMgL2SNmgwBdd2Yv12+Lztkts3j34+/dgac+794a+71f57inbtzG9ey2iF+HH6ZOd/1PetY9/uJEL3qEk4Q5ypjmppTsv9Py7tohG2bXRGOSdz4v/qQtVVVVfhHlwXuf/JD9VToQrlvP38S1W7ClG3rHe15sTrzsNTdh8q+u99odU62nEPb/95otvXB9+NmP7tQrRrsjznvZ/fe5L1335Rf2YsVMp3DQbit64UIEN9z3If+h9KQp09zYcT/6/cZN933kRdKWwRe8mt1TOhoir0VhmA6laVSz6dOnu3BB2VhmzpzpF1EejP+6tPNQ0R287Ph1/e9+Rz/ljrv4NXfnfz91/7z1Pbfm7g+4HQY94Wb+kb8xO3DnFdx6PRZzT73ylVv3Lw+6izPW2nV3j3X9jnrKC9kC88/rzj96LX+szW761CsT/TgTH0r37He/+zwx39aLYyZ7gbMFISw1pc5rUTimQ6ZLoVY1o6toC11HW6wrKcqD734s7SsSm6+3hFt04fm88LCE/DJtpl9qY5dsV/HoC15xv0//w/82EDLmz99246Vd24xlN/J/s+YdG3ry+u7UQ3q69u1a+fUkjJfZ2NlefZf1IltqSp3XonBCLbIl0KvZG1k40A7mvygPSj2Ns4nHmx9+5//XBesSjv3sJ/8/yatvf+NatGjmu6UI5GFnveitOcTrk4d3c0f3XyV75GwO3GUFP/bFctO5G9cYiysVTWnK7HIn1CL7HSw1VqoXO1iUBziVKCW/ZS2lbsu29f/rwoRJv/r/uawoE7fffp91rZvu+9gPvp9z7ZsZEfvT/WPw2u6vu67o9xnJMS88H5WaUue1KJwcojVryR7jsQNtEeXDIm3TBaG+wBJCVLbaYEm32ooLZ7cWx2MvTfD/zzliTf8/pG+mu7huj8Xc6+9N8QPzxo9Tp3vxOuzsl/x68illcswr2R0tBaXOa1EcuXSpWXKHLWD/RePTqWOb7K/SwKcxjEvRrXvsuq19F473qnj/6plb+ro7LuydPXIWvOqwzBJtqpe2C8zrhv3rw4z19Yvv6nH8lhkhZMxqyN9Wd3dm1rGuThs62p+/5srt3WPDt3KbrtvRr3deYtYAvlmABlZceB3e/yo1pc5rUTihFs2x6D2vOGio97x4GnjEPiu7Fs1rdp1G/u8Lt9dxz7ilOrTx73klwXpi6dZlIffvSzfN/K/Z/fz51xneusKPJByU6R4OPWV9/9vgmK0Ofsw/fdR7XgLkdLYCuOnej6q7VqVmla7t3I6bdnJdOy3kXxy994nP3YtZv4dYXIP36+5/h9DttGN434snj1hd87Vs7t4c+50PY9KU3/x+I7zOpG+n+fEtnkjavmQXEjjuunvGZtdKw7DTNvDWo2h8JF4VAN/brbTDvdk1UUo+GLmL67LUrIcLonGRx+wKgMrUEN/1NXXIYwlXHEi8ImK/HZbP/hKlQnkcDxKviNhn++VyvkMl5h7yljwWcSDxiogF28zrBvefc7Bc1A/kLXks4kDiFRmD9l7JLbvUrHeiRP1BnpK3Ih4kXpHRulULd/1ZG2XXRH1BnpK3Ih4kXhHSa43F3emH9cyuibmFvCRPRVxIvCLl5IN6+jfBxdxBHpKXIj4kXhFz5Snruz22Xja7JoqFvCMPRZxIvCJm3hbN3M3nbeQO33vl7BZRKOQZeUceijjRnYucZvPM4y4+dh139akb+JkdRH7II/KKPCPvRLxIvCqEAf1WcKP+taPbvnen7BaRhLwhj8grET8SrwqC+a7uvmxT9/SN27i+Gy2d3SrIC/KEvCGPRGUg8apANlh9cXfvFZv5ebeY1XTD1RdrUlMbk1bSTNrJA/KCPBGVhabEaSJM+32me/fjH/x8WcwD/8uvM92fFeKXk7GrNvO38M45mCe/+/Lt9MJphaD5vIQQUaL5vIQQFYfESwgRJRIvIUSUSLyEEFEi8RJCRInESwgRJRIvIUSUSLyEEFEi8RJCRInESwgRJRIvIUSUSLyEEFEi8RJCRInESwgRJRIvIUSUSLyEEFEi8RJCRInESwgRJRIvIUSUSLyEEFEi8RJCRInESwgRJRIvIUSUSLyEEFEi8RJCRInESwgRJRIvIUSU5BWvqqqq7C8hhGh48mnQHOLFwRItIUQ5kaZLNcQr3CkBE0KUA7l0qVq80g6QgAkhGpM0LbLfOce8OEDiJYRoTPLpULN55pmnxk5+//nnn375448/sluFEKLhQYNMj5I61Sy5wRY74bfffsvuFUKIhgPtCYXLFsN3G836ssVOQPUmTZrkDxRCiIYE7UlaXragWV68WDFMvGbOnOlmzJjh3n777eweIYRoONAeNAgtMvEy+D3HqxKmcigeJ02cONGNHj06e4QQQpQeNAftQYNyjXvVeFXCFjuQE6dPn+5ef/119+KLL2r8SwhRUtAYtAbNQXvM6jLhsgXmGTJkiP9FH9L+N2vWzC8tWrTwS8uWLd28887rWrdu7Tp16uTatWvnmjdvXuMcIYQoBhMh/mNd/fDDD278+PFu2rRpvrto4pUUMDunWrwMEy/+I1AsJmK2zmLHJAXMAhdCiCRJneA/C8KEgNliomXrdkyoL3OIFyBM9p8lFCwTLftvkTGS60IIYYTiA6F42f9QyGwd7L+RKl4mQAiU/Q/FisX2gQRLCFEsoZAhTCZkoYjZPgiPh1TxMkKxssW2h/8h/C2EEPkIhch+h/+TSxq1ildIPvESQoi6YOKU/G/USbwAgbKTQ9HKFaAQQhRLqCmh3uTTmRovqaYRnsxvFuufCiHE3BJqSqgrtWlM8z59+pyR/S2EENFQq+UlhBDliMRLCBEhzv0/zfXTo+vlgFAAAAAASUVORK5CYII=;" parent="WIyWlLk6GJQsqaUBKTNV-1" vertex="1">
          <mxGeometry x="460" y="40" width="192.3" height="370" as="geometry" />
        </mxCell>
        <mxCell id="T5cWVrSVKAUoA4NtnXVo-6" value="" style="edgeStyle=orthogonalEdgeStyle;rounded=0;orthogonalLoop=1;jettySize=auto;html=1;" edge="1" parent="WIyWlLk6GJQsqaUBKTNV-1" source="T5cWVrSVKAUoA4NtnXVo-3" target="T5cWVrSVKAUoA4NtnXVo-5">
          <mxGeometry relative="1" as="geometry" />
        </mxCell>
        <mxCell id="T5cWVrSVKAUoA4NtnXVo-8" value="" style="edgeStyle=orthogonalEdgeStyle;rounded=0;orthogonalLoop=1;jettySize=auto;html=1;" edge="1" parent="WIyWlLk6GJQsqaUBKTNV-1" source="T5cWVrSVKAUoA4NtnXVo-3" target="T5cWVrSVKAUoA4NtnXVo-7">
          <mxGeometry relative="1" as="geometry" />
        </mxCell>
        <mxCell id="T5cWVrSVKAUoA4NtnXVo-3" value="Trade in&lt;br&gt;modal&lt;br&gt;selection" style="rhombus;whiteSpace=wrap;html=1;fillColor=#dae8fc;strokeColor=#6c8ebf;" vertex="1" parent="WIyWlLk6GJQsqaUBKTNV-1">
          <mxGeometry x="495" y="555" width="90" height="85" as="geometry" />
        </mxCell>
        <mxCell id="T5cWVrSVKAUoA4NtnXVo-10" value="" style="edgeStyle=orthogonalEdgeStyle;rounded=0;orthogonalLoop=1;jettySize=auto;html=1;" edge="1" parent="WIyWlLk6GJQsqaUBKTNV-1" source="T5cWVrSVKAUoA4NtnXVo-5" target="T5cWVrSVKAUoA4NtnXVo-9">
          <mxGeometry relative="1" as="geometry" />
        </mxCell>
        <mxCell id="T5cWVrSVKAUoA4NtnXVo-5" value="Trade in" style="whiteSpace=wrap;html=1;fillColor=#dae8fc;strokeColor=#6c8ebf;" vertex="1" parent="WIyWlLk6GJQsqaUBKTNV-1">
          <mxGeometry x="480" y="692.5" width="120" height="60" as="geometry" />
        </mxCell>
        <mxCell id="T5cWVrSVKAUoA4NtnXVo-12" value="" style="edgeStyle=orthogonalEdgeStyle;rounded=0;orthogonalLoop=1;jettySize=auto;html=1;" edge="1" parent="WIyWlLk6GJQsqaUBKTNV-1" source="T5cWVrSVKAUoA4NtnXVo-7" target="T5cWVrSVKAUoA4NtnXVo-11">
          <mxGeometry relative="1" as="geometry" />
        </mxCell>
        <mxCell id="T5cWVrSVKAUoA4NtnXVo-7" value="Keep my device" style="whiteSpace=wrap;html=1;fillColor=#dae8fc;strokeColor=#6c8ebf;" vertex="1" parent="WIyWlLk6GJQsqaUBKTNV-1">
          <mxGeometry x="650" y="567.5" width="120" height="60" as="geometry" />
        </mxCell>
        <mxCell id="T5cWVrSVKAUoA4NtnXVo-15" style="edgeStyle=orthogonalEdgeStyle;rounded=0;orthogonalLoop=1;jettySize=auto;html=1;" edge="1" parent="WIyWlLk6GJQsqaUBKTNV-1" source="T5cWVrSVKAUoA4NtnXVo-9" target="WILMDqse3mX5CFCyso_Q-29">
          <mxGeometry relative="1" as="geometry">
            <Array as="points">
              <mxPoint x="340" y="863" />
              <mxPoint x="340" y="710" />
            </Array>
          </mxGeometry>
        </mxCell>
        <mxCell id="T5cWVrSVKAUoA4NtnXVo-9" value="Select promotion having trade in true" style="whiteSpace=wrap;html=1;fillColor=#d5e8d4;strokeColor=#82b366;" vertex="1" parent="WIyWlLk6GJQsqaUBKTNV-1">
          <mxGeometry x="480" y="832.5" width="120" height="60" as="geometry" />
        </mxCell>
        <mxCell id="T5cWVrSVKAUoA4NtnXVo-14" style="edgeStyle=orthogonalEdgeStyle;rounded=0;orthogonalLoop=1;jettySize=auto;html=1;" edge="1" parent="WIyWlLk6GJQsqaUBKTNV-1" source="T5cWVrSVKAUoA4NtnXVo-11" target="WILMDqse3mX5CFCyso_Q-29">
          <mxGeometry x="0.0126" y="140" relative="1" as="geometry">
            <Array as="points">
              <mxPoint x="710" y="930" />
              <mxPoint x="200" y="930" />
            </Array>
            <mxPoint x="1" as="offset" />
          </mxGeometry>
        </mxCell>
        <mxCell id="T5cWVrSVKAUoA4NtnXVo-11" value="Select promotion having trade in false" style="whiteSpace=wrap;html=1;fillColor=#d5e8d4;strokeColor=#82b366;" vertex="1" parent="WIyWlLk6GJQsqaUBKTNV-1">
          <mxGeometry x="650" y="707.5" width="120" height="60" as="geometry" />
        </mxCell>
        <mxCell id="T5cWVrSVKAUoA4NtnXVo-17" value="&lt;span style=&quot;color: rgb(23, 43, 77); font-family: -apple-system, BlinkMacSystemFont, &amp;quot;Segoe UI&amp;quot;, Roboto, Oxygen, Ubuntu, &amp;quot;Fira Sans&amp;quot;, &amp;quot;Droid Sans&amp;quot;, &amp;quot;Helvetica Neue&amp;quot;, sans-serif; font-size: 14px; text-align: left;&quot;&gt;price after discount is zero or negative amount, &quot;Free&quot; will be displayed&lt;/span&gt;" style="shape=process;whiteSpace=wrap;html=1;backgroundOutline=1;fillColor=#d5e8d4;strokeColor=#82b366;" vertex="1" parent="WIyWlLk6GJQsqaUBKTNV-1">
          <mxGeometry x="680" y="270" width="230" height="60" as="geometry" />
        </mxCell>
        <mxCell id="T5cWVrSVKAUoA4NtnXVo-19" value="&lt;span style=&quot;color: rgb(23, 43, 77); font-family: -apple-system, BlinkMacSystemFont, &amp;quot;Segoe UI&amp;quot;, Roboto, Oxygen, Ubuntu, &amp;quot;Fira Sans&amp;quot;, &amp;quot;Droid Sans&amp;quot;, &amp;quot;Helvetica Neue&amp;quot;, sans-serif; font-size: 14px; text-align: left;&quot;&gt;No Trade-in = having trade in false&lt;/span&gt;" style="shape=process;whiteSpace=wrap;html=1;backgroundOutline=1;fillColor=#d5e8d4;strokeColor=#82b366;" vertex="1" parent="WIyWlLk6GJQsqaUBKTNV-1">
          <mxGeometry x="680" y="180" width="230" height="60" as="geometry" />
        </mxCell>
        <mxCell id="T5cWVrSVKAUoA4NtnXVo-20" value="&lt;span style=&quot;color: rgb(23, 43, 77); font-family: -apple-system, BlinkMacSystemFont, &amp;quot;Segoe UI&amp;quot;, Roboto, Oxygen, Ubuntu, &amp;quot;Fira Sans&amp;quot;, &amp;quot;Droid Sans&amp;quot;, &amp;quot;Helvetica Neue&amp;quot;, sans-serif; font-size: 14px; text-align: left;&quot;&gt;With Trade-in = having trade in true&lt;/span&gt;" style="shape=process;whiteSpace=wrap;html=1;backgroundOutline=1;fillColor=#d5e8d4;strokeColor=#82b366;" vertex="1" parent="WIyWlLk6GJQsqaUBKTNV-1">
          <mxGeometry x="680" y="100" width="230" height="60" as="geometry" />
        </mxCell>
      </root>
    </mxGraphModel>
  </diagram>
</mxfile>
